<?xml version="1.0" encoding="utf-8"?>
<!-- Generator: Adobe Illustrator 26.1.0, SVG Export Plug-In . SVG Version: 6.00 Build 0)  -->
<svg version="1.1" id="Capa_1" xmlns="http://www.w3.org/2000/svg" xmlns:xlink="http://www.w3.org/1999/xlink" x="0px" y="0px"
	 viewBox="0 0 884.8 267.2" style="enable-background:new 0 0 884.8 267.2;" xml:space="preserve">
<style type="text/css">
	.st0{fill:#554E94;}
	.st1{fill:#F2F2F2;}
</style>
<path class="st0" d="M853.1,0H31.7C14.2,0,0,14.2,0,31.7v203.7c0,17.5,14.2,31.7,31.7,31.7h821.3c17.5,0,31.7-14.2,31.7-31.7V31.7
	C884.8,14.2,870.6,0,853.1,0z"/>
<g>
	<polygon class="st1" points="109.1,138.3 97.8,114.5 87.8,114.5 77.2,138.2 68,108.2 52.3,108.2 69.8,157.2 81,157.2 93,130.9 
		104.7,157.2 116,157.2 134.2,108.2 118.5,108.2 	"/>
	<path class="st1" d="M195,114c-2.6-2.2-5.6-3.9-9-5.1c-3.4-1.2-7.1-1.8-11.2-1.8c-4,0-7.8,0.6-11.4,1.8c-3.7,1.2-6.8,3-9.5,5.2
		c-2.7,2.3-4.8,5-6.4,8.1c-1.6,3.1-2.4,6.7-2.4,10.6c0,4.8,1.3,9.1,3.9,12.9c2.6,3.8,6.3,6.8,11,9c4.7,2.2,10.2,3.3,16.5,3.3
		c3,0,5.9-0.2,9-0.8c2.8-0.6,5.5-1.4,8.1-2.4c2.6-1.1,4.9-2.4,7.1-3.9l-6.5-9.5c-1.6,1-3.6,1.9-6,2.8c-2.5,0.9-5.5,1.3-9.3,1.3
		c-4,0-7.5-0.6-10.5-1.8s-5.3-2.8-6.9-4.9c-0.6-0.9-1.2-1.8-1.5-2.7h42.7l0.1-4.3c0.1-3.7-0.5-7-1.9-10
		C199.5,118.9,197.7,116.2,195,114z M166.9,120.4c2.4-0.9,5.1-1.3,8.1-1.3c2.5,0,4.8,0.4,6.8,1.1s3.7,1.7,5,2.9
		c1.2,1.2,2,2.5,2.3,4.1h-29.2c0.3-0.9,0.8-1.8,1.4-2.6C162.6,122.7,164.5,121.2,166.9,120.4z"/>
	<path class="st1" d="M272.5,110.2c-4-2.2-8.4-3.3-13.3-3.3c-2.8,0-5.5,0.4-8,1.1c-2.4,0.7-4.7,1.7-6.6,2.9
		c-1.1,0.7-2.2,1.5-3.1,2.3V88.7h-14.9v68.2h13.8l0.4-5.2c0.9,0.8,2,1.6,3.2,2.4c1.9,1.2,4.2,2.2,6.7,2.9c2.5,0.7,5.2,1.1,8.2,1.1
		c5.1,0,9.6-1.1,13.8-3.4c3.9-2.1,7-5.2,9.3-9c2.3-3.9,3.4-8.3,3.4-13.3s-1.2-9.4-3.5-13.2C279.5,115.4,276.4,112.4,272.5,110.2z
		 M268.8,139.4c-1.3,2-3.1,3.5-5.3,4.6c-2.3,1.1-4.9,1.7-8,1.7c-3,0-5.7-0.6-8-1.7c-2.4-1.1-4.1-2.7-5.4-4.6c-1.3-2-1.9-4.2-1.9-6.8
		c0-2.6,0.6-4.9,1.9-6.8c1.3-2,3.1-3.5,5.4-4.5c2.3-1.1,5-1.6,8.1-1.6c3,0,5.6,0.6,7.9,1.6c2.3,1.1,4,2.6,5.3,4.5
		c1.3,2,1.9,4.2,1.9,6.8C270.7,135.2,270,137.4,268.8,139.4z"/>
	<path class="st1" d="M354.5,110.2c-4-2.2-8.4-3.3-13.3-3.3c-2.8,0-5.5,0.4-8,1.1c-2.4,0.7-4.7,1.7-6.6,2.9
		c-1.1,0.7-2.2,1.5-3.1,2.3V88.7h-14.9v68.2h13.9l0.4-5.2c0.9,0.8,2,1.6,3.2,2.4c1.9,1.2,4.2,2.2,6.7,2.9c2.5,0.7,5.2,1.1,8.2,1.1
		c5.1,0,9.7-1.1,13.7-3.4c3.9-2.1,7-5.2,9.3-9c2.3-3.9,3.4-8.3,3.4-13.3s-1.2-9.4-3.5-13.2C361.5,115.4,358.4,112.4,354.5,110.2z
		 M351,139.4c-1.3,2-3.1,3.5-5.3,4.6c-2.3,1.1-4.9,1.7-8,1.7c-3.1,0-5.8-0.6-8-1.7c-2.4-1.1-4.1-2.7-5.4-4.6c-1.3-2-1.9-4.2-1.9-6.8
		c0-2.6,0.6-4.9,1.9-6.8c1.3-2,3.1-3.5,5.4-4.5c2.3-1.1,5-1.6,8.1-1.6c3,0,5.6,0.6,7.9,1.6c2.3,1.1,4,2.6,5.3,4.5
		c1.3,2,1.9,4.2,1.9,6.8C353,135.2,352.3,137.4,351,139.4z"/>
	<path class="st1" d="M417.6,134.5c-1,2.2-1.9,4.3-2.8,6.4c-0.2,0.4-0.3,0.8-0.5,1.2c-0.3-0.7-0.6-1.4-0.9-2.1c-0.9-2-1.9-4-2.9-5.9
		l-12.6-26h-17.2l26,48.3l-11.7,22h15.1l10.6-20.9l25.9-49.4h-16.9L417.6,134.5z"/>
	<path class="st1" d="M535.2,121.4h-35.7v12.2H520c-0.2,1.1-0.6,2.2-1.3,3.2c-1,1.5-2.4,2.8-4.1,3.9c-1.7,1-3.8,1.9-6.2,2.5
		c-2.4,0.6-5,0.9-7.8,0.9c-3,0-5.9-0.4-8.6-1.2s-5.1-2-7.2-3.6c-2.1-1.6-3.7-3.6-4.9-6.1s-1.8-5.4-1.8-8.7c0-2.8,0.6-5.3,1.7-7.7
		c1.2-2.4,2.8-4.4,4.8-6.2c2.1-1.7,4.5-3.1,7.2-4.1c2.7-1,5.7-1.5,8.9-1.5c2.8,0,5.3,0.3,7.7,1c2.4,0.6,4.6,1.5,6.6,2.5
		s3.9,2.2,5.7,3.7l9.5-10.4c-1.9-1.9-4.3-3.7-7.2-5.3c-3-1.6-6.3-2.9-10-3.9c-3.7-1-7.8-1.5-12.3-1.5c-5.6,0-10.8,0.8-15.6,2.5
		c-4.8,1.6-8.9,4-12.4,7s-6.3,6.6-8.2,10.6c-1.9,4.1-2.9,8.5-2.9,13.3c0,5.3,1,10,2.8,14.2c1.9,4.2,4.5,7.7,7.8,10.6
		c3.3,2.9,7.2,5,11.8,6.5c4.6,1.5,9.6,2.2,15,2.2c5.4,0,10.3-0.6,14.8-1.9c4.5-1.3,8.4-3.2,11.6-5.6c3.3-2.4,5.7-5.4,7.5-9
		c1.7-3.6,2.6-7.7,2.6-12.3c0-0.3,0-0.9,0-1.8s0-1.9-0.1-3C535.4,123.2,535.3,122.4,535.2,121.4z"/>
	<path class="st1" d="M590.3,107c-3.1,0-6.1,0.8-9,2.4s-5.4,3.7-7.5,6.3c-0.3,0.4-0.6,0.8-0.9,1.1l-0.3-8.7h-14v49h14.9v-22.8
		c0-1.5,0.2-2.9,0.8-4.3c0.6-1.3,1.4-2.6,2.5-3.7c1.1-1.1,2.5-2,4.1-2.6c1.6-0.6,3.4-0.9,5.4-0.9c1.7,0,3.6,0.2,5.4,0.6
		c1.8,0.5,3.3,1.1,4.4,1.8l4.1-16c-1.3-0.7-2.8-1.2-4.5-1.6C594,107.2,592.2,107,590.3,107z"/>
	<path class="st1" d="M658.8,114c-1-1-2.2-2-3.6-2.8c-1.9-1.3-4.1-2.3-6.7-3c-2.6-0.7-5.4-1.1-8.4-1.1c-5.3,0-9.9,1.1-13.8,3.3
		c-4,2.1-7.1,5.2-9.3,9c-2.3,3.9-3.4,8.3-3.4,13.3c0,4.8,1.1,9.2,3.3,13c2.1,3.8,5.2,6.8,9.1,9c3.9,2.2,8.5,3.3,13.7,3.3
		c2.8,0,5.5-0.3,8.1-1.2c2.5-0.7,4.8-1.7,6.7-3c1.5-1,2.9-2.2,4-3.3v6.7h15v-49h-14.7V114z M656.8,139.4c-1.3,1.9-3.1,3.4-5.3,4.5
		c-2.3,1.1-5,1.6-8.1,1.6c-3,0-5.7-0.6-8-1.6c-2.3-1.1-4.1-2.6-5.4-4.5c-1.3-1.9-1.9-4.2-1.9-6.7c0-2.6,0.6-4.9,1.9-6.8
		c1.3-1.9,3.1-3.4,5.4-4.5c2.2-1.1,4.9-1.7,8-1.7c3.2,0,5.9,0.6,8.1,1.7c2.3,1.1,4,2.6,5.3,4.5c1.3,1.9,1.9,4.2,1.9,6.8
		C658.8,135.2,658.1,137.5,656.8,139.4z"/>
	<polygon class="st1" points="723.9,141.7 709,108.2 692,108.2 717,157.2 729.8,157.2 755.7,108.2 739,108.2 	"/>
	<path class="st1" d="M815.7,108.2l-12.1,26.4c-1,2.2-1.9,4.3-2.8,6.4c-0.2,0.4-0.3,0.8-0.5,1.2c-0.3-0.7-0.6-1.4-0.9-2.1
		c-0.9-2-1.9-4-2.9-5.9l-12.7-26h-17.2l25.9,48.2l-11.7,22.1h15.3l10.6-20.9l25.9-49.4H815.7z"/>
</g>
</svg>
