<?xml version="1.0" encoding="utf-8"?>
<!-- Generator: Adobe Illustrator 26.1.0, SVG Export Plug-In . SVG Version: 6.00 Build 0)  -->
<svg version="1.1" id="Capa_1" xmlns="http://www.w3.org/2000/svg" xmlns:xlink="http://www.w3.org/1999/xlink" x="0px" y="0px"
	 viewBox="0 0 780.3 89.7" style="enable-background:new 0 0 780.3 89.7;" xml:space="preserve">
<style type="text/css">
	.st0{fill:#F2F2F2;}
</style>
<g>
	<path class="st0" d="M17.5,68.4L0,19.4h15.7l10.1,32.7l-1.9-0.2l11.7-26.1h9.9L58,51.9l-1.9,0.2l10.2-32.7H82l-18.3,49H52.4
		L38.4,37l4.8-0.3L28.8,68.4H17.5z"/>
	<path class="st0" d="M124.3,69.3c-6.3,0-11.8-1.1-16.5-3.3s-8.4-5.2-11-9s-3.9-8.1-3.9-12.9c0-3.9,0.8-7.5,2.4-10.6
		c1.6-3.1,3.7-5.8,6.4-8.1c2.7-2.2,5.8-4,9.5-5.2c3.6-1.2,7.4-1.8,11.4-1.8c4.1,0,7.8,0.6,11.2,1.8s6.4,2.9,9,5.1
		c2.6,2.2,4.5,4.8,5.9,7.8s2,6.3,1.9,10l-0.1,4.3h-47.4l-2.1-9h37.5l-1.6,2v-1.8c-0.2-1.7-1-3.1-2.3-4.3c-1.3-1.2-3-2.2-5-2.9
		c-2-0.7-4.3-1.1-6.8-1.1c-3,0-5.7,0.4-8.1,1.3c-2.4,0.9-4.3,2.3-5.7,4.2s-2.1,4.3-2.1,7.2c0,2.6,0.8,5,2.4,7.1
		c1.6,2.1,3.9,3.7,6.9,4.9s6.5,1.8,10.5,1.8c3.8,0,6.8-0.4,9.3-1.3c2.4-0.9,4.4-1.8,6-2.8l6.5,9.5c-2.2,1.5-4.5,2.8-7.1,3.9
		c-2.6,1-5.3,1.8-8.1,2.4C130.2,69.1,127.3,69.3,124.3,69.3z"/>
	<path class="st0" d="M206.6,69.4c-3,0-5.7-0.4-8.2-1.1c-2.5-0.7-4.8-1.7-6.7-2.9c-2-1.2-3.6-2.5-4.8-3.9c-1.3-1.4-2.1-2.8-2.4-4.1
		l4.4-0.6l-0.8,11.4h-13.8V0h14.9v31l-4.2-0.6c0.4-1.5,1.3-2.9,2.5-4.3c1.3-1.4,2.9-2.7,4.8-3.9s4.2-2.2,6.6-2.9
		c2.5-0.7,5.2-1.1,8-1.1c4.9,0,9.3,1.1,13.3,3.3c3.9,2.2,7,5.2,9.4,9c2.3,3.8,3.5,8.2,3.5,13.2s-1.1,9.4-3.4,13.3
		c-2.3,3.8-5.4,6.9-9.3,9C216.2,68.3,211.7,69.4,206.6,69.4z M203.2,56.9c3.1,0,5.7-0.6,8-1.7c2.2-1.1,4-2.6,5.3-4.6
		c1.3-1.9,1.9-4.2,1.9-6.8s-0.6-4.8-1.9-6.8c-1.3-1.9-3-3.4-5.3-4.5c-2.3-1-4.9-1.6-7.9-1.6c-3.1,0-5.8,0.5-8.1,1.6
		c-2.3,1-4.1,2.5-5.4,4.5c-1.3,1.9-1.9,4.2-1.9,6.8s0.6,4.8,1.9,6.8c1.3,1.9,3,3.5,5.4,4.6C197.5,56.3,200.2,56.9,203.2,56.9z"/>
	<path class="st0" d="M288.8,69.4c-3,0-5.7-0.4-8.2-1.1c-2.5-0.7-4.8-1.7-6.7-2.9c-2-1.2-3.6-2.5-4.8-3.9c-1.3-1.4-2.1-2.8-2.4-4.1
		l4.4-0.6l-0.8,11.4h-13.9V0h14.9v31l-4.2-0.6c0.4-1.5,1.3-2.9,2.5-4.3c1.3-1.4,2.9-2.7,4.8-3.9s4.2-2.2,6.6-2.9
		c2.5-0.7,5.2-1.1,8-1.1c4.9,0,9.3,1.1,13.3,3.3c3.9,2.2,7,5.2,9.4,9c2.3,3.8,3.5,8.2,3.5,13.2s-1.1,9.4-3.4,13.3
		c-2.3,3.8-5.4,6.9-9.3,9C298.5,68.3,293.9,69.4,288.8,69.4z M285.5,56.9c3.1,0,5.7-0.6,8-1.7c2.2-1.1,4-2.6,5.3-4.6
		c1.3-1.9,1.9-4.2,1.9-6.8s-0.6-4.8-1.9-6.8c-1.3-1.9-3-3.4-5.3-4.5c-2.3-1-4.9-1.6-7.9-1.6c-3.1,0-5.8,0.5-8.1,1.6
		c-2.3,1-4.1,2.5-5.4,4.5c-1.3,1.9-1.9,4.2-1.9,6.8s0.6,4.8,1.9,6.8c1.3,1.9,3,3.5,5.4,4.6C279.7,56.3,282.4,56.9,285.5,56.9z"/>
	<path class="st0" d="M342.8,89.7l13.9-26.2l-0.6,7.3l-27.6-51.4h17.2l12.6,26c1,1.9,2,3.9,2.9,5.9s1.6,4,2.3,6l-3.2,0.4
		c0.7-1.6,1.4-3.4,2.3-5.5s1.8-4.2,2.8-6.4l12.1-26.4h16.9l-25.9,49.4l-10.6,20.9L342.8,89.7L342.8,89.7z"/>
	<path class="st0" d="M446.8,69.3c-5.4,0-10.4-0.7-15-2.2c-4.6-1.5-8.5-3.6-11.8-6.5s-5.9-6.4-7.8-10.6c-1.8-4.2-2.8-8.9-2.8-14.2
		c0-4.8,1-9.2,2.9-13.3c1.9-4,4.7-7.6,8.2-10.6c3.5-3,7.6-5.4,12.4-7c4.8-1.7,10-2.5,15.6-2.5c4.5,0,8.6,0.5,12.3,1.5s7,2.3,10,3.9
		c2.9,1.6,5.3,3.4,7.2,5.3l-9.5,10.4c-1.8-1.5-3.7-2.7-5.7-3.7s-4.2-1.9-6.6-2.5c-2.4-0.7-4.9-1-7.7-1c-3.2,0-6.2,0.5-8.9,1.5
		s-5.1,2.4-7.2,4.1c-2,1.8-3.6,3.8-4.8,6.2c-1.1,2.4-1.7,4.9-1.7,7.7c0,3.3,0.6,6.2,1.8,8.7c1.2,2.5,2.8,4.5,4.9,6.1
		c2.1,1.6,4.5,2.8,7.2,3.6s5.6,1.2,8.6,1.2c2.8,0,5.4-0.3,7.8-0.9c2.4-0.6,4.5-1.5,6.2-2.5c1.7-1.1,3.1-2.4,4.1-3.9s1.4-3.1,1.4-4.8
		l0.1-2l2,3.6h-22.8V32.7h35.7c0.1,0.9,0.2,1.8,0.3,3c0.1,1.1,0.1,2.1,0.1,3s0,1.5,0,1.8c0,4.6-0.9,8.7-2.6,12.3
		c-1.8,3.6-4.2,6.6-7.5,9c-3.2,2.4-7.1,4.3-11.6,5.6C457.1,68.7,452.2,69.3,446.8,69.3z"/>
	<path class="st0" d="M506.4,68.4v-49h14l0.6,17.5l-4-1.1c0.9-3.3,2.4-6.2,4.6-8.8c2.1-2.6,4.6-4.7,7.5-6.3s5.9-2.4,9-2.4
		c1.9,0,3.7,0.2,5.4,0.6c1.7,0.4,3.2,0.9,4.5,1.6l-4.1,16c-1.1-0.7-2.6-1.3-4.4-1.8c-1.8-0.4-3.7-0.6-5.4-0.6c-2,0-3.8,0.3-5.4,0.9
		c-1.6,0.6-3,1.5-4.1,2.6s-1.9,2.4-2.5,3.7c-0.6,1.4-0.8,2.8-0.8,4.3v22.8H506.4z"/>
	<path class="st0" d="M587.4,69.2c-5.2,0-9.8-1.1-13.7-3.3s-7-5.2-9.1-9c-2.2-3.8-3.3-8.2-3.3-13c0-5,1.1-9.4,3.4-13.3
		c2.2-3.8,5.3-6.9,9.3-9c3.9-2.2,8.5-3.3,13.8-3.3c3,0,5.8,0.4,8.4,1.1c2.6,0.7,4.8,1.7,6.7,3c1.9,1.2,3.5,2.6,4.7,4s2,2.9,2.4,4.4
		l-3.5,0.2V19.4h14.7v49h-15v-13l3.1,0.8c-0.2,1.5-1,3.1-2.3,4.6s-2.9,2.9-4.8,4.2c-1.9,1.3-4.2,2.3-6.7,3
		C592.9,68.9,590.2,69.2,587.4,69.2z M591.2,56.8c3.1,0,5.8-0.5,8.1-1.6c2.2-1.1,4-2.6,5.3-4.5s1.9-4.2,1.9-6.7
		c0-2.6-0.6-4.9-1.9-6.8c-1.3-1.9-3-3.4-5.3-4.5c-2.2-1.1-4.9-1.7-8.1-1.7c-3.1,0-5.8,0.6-8,1.7c-2.3,1.1-4.1,2.6-5.4,4.5
		c-1.3,1.9-1.9,4.2-1.9,6.8c0,2.5,0.6,4.8,1.9,6.7c1.3,1.9,3.1,3.4,5.4,4.5C585.5,56.2,588.2,56.8,591.2,56.8z"/>
	<path class="st0" d="M664.7,68.4l-25-49h17l16.9,38l-4.2,0.4l17.3-38.3h16.7l-25.9,49L664.7,68.4L664.7,68.4z"/>
	<path class="st0" d="M728.5,89.7l13.9-26.3l-0.6,7.3l-27.5-51.3h17.2l12.7,26c1,1.9,2,3.9,2.9,5.9s1.6,4,2.3,6l-3.2,0.4
		c0.7-1.6,1.4-3.4,2.3-5.5c0.9-2.1,1.8-4.2,2.8-6.4l12.1-26.4h16.9l-25.9,49.4l-10.6,20.9L728.5,89.7L728.5,89.7z"/>
</g>
</svg>
