<?xml version="1.0" encoding="utf-8"?>
<!-- Generator: Adobe Illustrator 26.1.0, SVG Export Plug-In . SVG Version: 6.00 Build 0)  -->
<svg version="1.1" id="Capa_1" xmlns="http://www.w3.org/2000/svg" xmlns:xlink="http://www.w3.org/1999/xlink" x="0px" y="0px"
	 viewBox="0 0 675.1 675.1" style="enable-background:new 0 0 675.1 675.1;" xml:space="preserve">
<style type="text/css">
	.st0{fill:#554E94;}
	.st1{fill-rule:evenodd;clip-rule:evenodd;fill:#F2F2F2;}
</style>
<circle class="st0" cx="337.6" cy="337.6" r="337.6"/>
<g>
	<path class="st1" d="M301.8,374.9c0.1-0.1,0.2-0.2,0.3-0.3c14.4-14.6,23.4-34.7,23.4-56.8c0-22.1-9-42.1-23.4-56.7
		c-0.1-0.1-0.2-0.3-0.3-0.3c-0.1-0.1-0.3-0.2-0.3-0.3c-14.6-14.4-34.5-23.3-56.6-23.4c-0.1,0-0.1,0-0.2,0s-0.1,0-0.2,0
		c-22,0.1-42,9-56.5,23.3c-0.2,0.1-0.3,0.3-0.4,0.3c-0.2,0.2-0.3,0.3-0.3,0.4c-14.4,14.6-23.3,34.6-23.3,56.7s8.9,42.1,23.3,56.7
		c0.1,0.2,0.3,0.3,0.4,0.5c0.2,0.2,0.3,0.3,0.5,0.4c5.5,5.4,11.7,10,18.6,13.7h-26c-9.2,0-16.8,7.5-16.8,16.8v15.5c0,4.7,1.9,9,5,12
		c-3.1,3-5,7.3-5,12v15.5c0,4.7,1.9,9,5,12c-3.1,3-5,7.3-5,12v15.5c0,4.7,1.9,9,5,12c-3.1,3-5,7.3-5,12v15.5
		c0,9.2,7.6,16.8,16.8,16.8h128c9.2,0,16.8-7.6,16.8-16.8v-15.5c0-4.7-1.9-9-5.1-12c3.1-3,5.1-7.3,5.1-12v-15.5c0-4.7-1.9-9-5-12
		c3.1-3,5-7.3,5-12v-15.5c0-4.7-2-9-5.1-12c3.1-3,5-7.3,5-12v-15.6c0-9.2-7.5-16.8-16.8-16.8h-25.9c6.9-3.7,13.2-8.3,18.7-13.8
		C301.6,375.1,301.7,375,301.8,374.9z M173.6,322.6h11.3c1,12.9,6.2,24.8,14.2,34.1l-8,8C181.1,353.2,174.6,338.6,173.6,322.6z
		 M191.1,271l8,8c-8,9.3-13.1,21.1-14.2,34.1h-11.3C174.6,297,181.1,282.4,191.1,271z M315.7,313.1h-11.3
		c-1-12.9-6.2-24.8-14.2-34.1l8-8C308.2,282.4,314.6,297,315.7,313.1z M280.3,353.5L280.3,353.5L280.3,353.5
		c-9.1,9.1-21.6,14.8-35.5,14.8c-0.1,0-0.1,0-0.2,0c-0.1,0-0.1,0-0.2,0c-27.7-0.1-50.2-22.7-50.2-50.4l0,0l0,0
		c0-27.8,22.7-50.4,50.4-50.4s50.3,22.5,50.4,50.3c0,0.1,0,0.1,0,0.2s0,0.1,0,0.2C295.1,331.8,289.4,344.4,280.3,353.5z
		 M283.5,272.2c-9.3-8-21.1-13.1-34.1-14.2v-11.3c16.1,1,30.7,7.5,42.1,17.5L283.5,272.2z M239.9,258.1c-12.9,1-24.8,6.2-34.1,14.2
		l-8-8c11.4-10,26-16.4,42.1-17.5V258.1z M205.8,363.5c9.3,8,21.1,13.1,34.1,14.2v11.3c-16.1-1-30.7-7.5-42.1-17.5L205.8,363.5z
		 M249.5,377.6c12.9-1,24.8-6.2,34.1-14.2l8,8c-11.4,10-26,16.4-42.1,17.5L249.5,377.6L249.5,377.6z M290.3,356.7
		c8-9.3,13.1-21.1,14.2-34.1h11.3c-1,16.1-7.5,30.7-17.5,42.1L290.3,356.7z M315.9,539.5c0,4-3.2,7.2-7.2,7.2h-128
		c-4,0-7.2-3.2-7.2-7.2v-15.5c0-4,3.2-7.2,7.2-7.2l0,0l0,0h128c4,0,7.2,3.2,7.2,7.2V539.5z M315.9,484.6v15.5c0,4-3.2,7.2-7.2,7.2
		h-128c-4,0-7.2-3.2-7.2-7.2v-15.5c0-3.9,3.1-7.1,7-7.2c0.1,0,0.1,0,0.2,0h128c0.1,0,0.3,0,0.3,0
		C312.8,477.6,315.9,480.7,315.9,484.6z M308.6,467.8c-0.1,0-0.3,0-0.3,0H180.7c-0.1,0-0.1,0-0.2,0c-0.1,0-0.1,0-0.2,0
		c-3.9-0.1-7-3.3-7-7.2v-15.5c0-4,3.2-7.2,7.2-7.2c0.1,0,0.1,0,0.2,0h127.7c0.1,0,0.1,0,0.2,0c4,0,7.2,3.2,7.2,7.2v15.5
		c0,3.8-3,7-6.9,7.2C308.9,467.8,308.8,467.8,308.6,467.8z M308.6,398.6c4,0,7.2,3.2,7.2,7.2v15.5c0,4-3.2,7.2-7.2,7.2h-128
		c-4,0-7.2-3.2-7.2-7.2v-15.5c0-4,3.2-7.2,7.2-7.2l0,0h63.3c0.3,0,0.5,0,0.8,0l0,0c0.3,0,0.5,0,0.8,0H308.6z"/>
	<path class="st1" d="M494,315c3.1-3,5-7.3,5-12v-15.4c0-9.2-7.5-16.8-16.8-16.8h-26c6.9-3.6,13.1-8.3,18.6-13.7
		c0.2-0.1,0.3-0.2,0.4-0.3c0.2-0.2,0.3-0.3,0.3-0.4c14.4-14.6,23.3-34.6,23.3-56.7c0-22.2-9-42.4-23.6-57l-0.1-0.1l-0.1-0.1
		c-14.6-14.5-34.8-23.6-56.9-23.6l0,0l0,0c-22.1,0-42.1,8.9-56.7,23.3c-0.2,0.1-0.3,0.3-0.4,0.3c-0.2,0.2-0.3,0.3-0.3,0.4
		c-14.3,14.6-23.3,34.6-23.3,56.7l0,0l0,0c0,22,8.9,42,23.1,56.5c0.2,0.2,0.3,0.4,0.5,0.6c0.2,0.2,0.3,0.3,0.6,0.4
		c5.5,5.4,11.7,10,18.5,13.6h-26c-9.2,0-16.8,7.6-16.8,16.8v15.5c0,4.7,1.9,9,5,12c-3.1,3-5,7.3-5,12v15.5c0,4.7,1.9,9,5,12
		c-3.1,3-5,7.3-5,12V382c0,4.7,1.9,9,5,12c-3.1,3-5,7.3-5,12v15.5c0,4.7,1.9,9,5,12c-3.1,3-5,7.3-5,12v15.5c0,4.7,1.9,9,5,12
		c-3.1,3-5,7.3-5,12v15.5c0,4.7,1.9,9,5,12c-3.1,3-5,7.3-5,12v15.5c0,9.2,7.6,16.8,16.8,16.8h128l0,0c9.2,0,16.8-7.6,16.8-16.8
		v-15.5c0-4.7-1.9-9-5.1-12c3.1-3,5.1-7.3,5.1-12v-15.5c0-4.7-1.9-9-5-12c3.1-3,5-7.3,5-12v-15.5c0-4.7-2-9-5.1-12
		c3.1-3,5.1-7.3,5.1-12v-15.6c0-4.7-1.9-9-5-12c3.1-3,5-7.3,5-12v-15.5c0-4.7-1.9-9-5-12c3.1-3,5-7.3,5-12v-15.5
		C499.1,322.3,497.1,318,494,315z M347.2,204.4h11.3c1,12.9,6.2,24.8,14.2,34.1l-8,8C354.7,235,348.3,220.4,347.2,204.4z
		 M364.7,152.7l8,8c-8,9.3-13.1,21.1-14.2,34.1h-11.3C348.3,178.8,354.7,164.2,364.7,152.7z M489.3,194.8H478
		c-1-12.9-6.2-24.8-14.2-34.1l8-8C481.8,164.1,488.3,178.7,489.3,194.8z M471.9,246.4l-8-8c8-9.4,13.1-21.1,14.2-34.2h11.3
		C488.3,220.4,481.8,235,471.9,246.4z M367.8,199.6c0-27.8,22.6-50.4,50.4-50.4c27.7,0,50.3,22.5,50.4,50.2c0,0.1,0,0.1,0,0.2
		c0,0.1,0,0.2,0,0.2c-0.1,27.7-22.6,50.1-50.2,50.2c-0.1,0-0.1,0-0.2,0s-0.1,0-0.2,0C390.3,250,367.8,227.4,367.8,199.6z M423,259.4
		c12.9-1,24.8-6.2,34.1-14.2l8,8c-11.4,10-26,16.3-42.1,17.5L423,259.4L423,259.4z M457.1,154c-9.3-8-21.1-13.1-34.1-14.2v-11.3
		c16.1,1,30.7,7.5,42.1,17.5L457.1,154z M413.5,139.9c-12.9,1-24.8,6.2-34.1,14.2l-8-8c11.4-10,26-16.4,42.1-17.5L413.5,139.9
		L413.5,139.9z M379.4,245.2c9.3,8,21.1,13.1,34.1,14.2v11.3c-16.1-1-30.7-7.5-42.1-17.5L379.4,245.2z M347.1,287.6
		c0-4,3.2-7.2,7.2-7.2h128c4,0,7.2,3.2,7.2,7.2v15.5c0,4-3.2,7.2-7.2,7.2h-128c-4,0-7.2-3.2-7.2-7.2L347.1,287.6L347.1,287.6z
		 M489.5,539.5c0,4-3.2,7.2-7.2,7.2h-128c-4,0-7.2-3.2-7.2-7.2v-15.5c0-4,3.2-7.2,7.2-7.2l0,0h128l0,0c4,0,7.2,3.2,7.2,7.2V539.5z
		 M489.5,484.6v15.5c0,4-3.2,7.2-7.2,7.2h-128c-4,0-7.2-3.2-7.2-7.2v-15.5c0-3.9,3.1-7.1,7-7.2c0.1,0,0.1,0,0.2,0h128l0,0
		c0.1,0,0.2,0,0.3,0C486.5,477.6,489.5,480.8,489.5,484.6z M482.3,467.8c-0.1,0-0.3,0-0.3,0H354.4c-0.1,0-0.1,0-0.2,0
		c-0.1,0-0.1,0-0.2,0c-3.9-0.1-7-3.3-7-7.2v-15.5c0-4,3.2-7.2,7.2-7.2c0.1,0,0.1,0,0.2,0H482c0.1,0,0.1,0,0.2,0c4,0,7.2,3.2,7.2,7.2
		v15.5c0,3.8-3,7-6.9,7.2C482.5,467.8,482.4,467.8,482.3,467.8z M489.5,405.8v15.5c0,4-3.2,7.2-7.2,7.2h-128c-4,0-7.2-3.2-7.2-7.2
		v-15.5c0-4,3.2-7.2,7.2-7.2l0,0h128l0,0c0.1,0,0.1,0,0.2,0C486.4,398.7,489.5,401.9,489.5,405.8z M489.5,366.4v15.5
		c0,3.9-3.1,7.1-7,7.2c-0.1,0-0.1,0-0.2,0c-0.1,0-0.1,0-0.2,0H354.3l0,0l0,0c-4,0-7.2-3.2-7.2-7.2v-15.5c0-4,3.2-7.2,7.2-7.2l0,0
		h128l0,0c0.1,0,0.1,0,0.2,0C486.4,359.3,489.5,362.5,489.5,366.4z M482.3,349.7c-0.1,0-0.1,0-0.2,0H354.4c-0.1,0-0.1,0-0.2,0
		c-0.1,0-0.1,0-0.2,0c-3.9-0.1-7-3.3-7-7.2V327c0-4,3.2-7.2,7.2-7.2c0.1,0,0.1,0,0.2,0h127.7c0.1,0,0.1,0,0.2,0c4,0,7.2,3.2,7.2,7.2
		v15.5c0,3.9-3.1,7.1-7,7.2C482.5,349.7,482.4,349.7,482.3,349.7z"/>
</g>
</svg>
