<?xml version="1.0" encoding="utf-8"?>
<!-- Generator: Adobe Illustrator 26.1.0, SVG Export Plug-In . SVG Version: 6.00 Build 0)  -->
<svg version="1.1" id="Capa_1" xmlns="http://www.w3.org/2000/svg" xmlns:xlink="http://www.w3.org/1999/xlink" x="0px" y="0px"
	 viewBox="0 0 675.1 675.1" style="enable-background:new 0 0 675.1 675.1;" xml:space="preserve">
<style type="text/css">
	.st0{fill:#F2F2F2;}
	.st1{fill:#554E94;}
</style>
<circle class="st0" cx="337.6" cy="337.6" r="337.6"/>
<circle class="st1" cx="1061.6" cy="338.4" r="337.6"/>
<g>
	<path class="st1" d="M541.7,263.2C541.7,263.2,541.7,263.2,541.7,263.2l0-63.2c0-10.4-8.1-18.8-18-18.8h-29v-28.3
		c0-7.4-6-13.4-13.4-13.4l-35.5,0c-7.4,0-13.4,6-13.4,13.4v28.3H243.7V153c0-7.4-6-13.4-13.4-13.4h-35.5c-7.4,0-13.4,6-13.4,13.4
		v28.3h-29c-9.9,0-18,8.4-18,18.8v318.4c0,10.4,8.1,18.8,18,18.8h371.4v0c9.9,0,18-8.4,18-18.8L541.7,263.2
		C541.7,263.2,541.7,263.2,541.7,263.2z M446.3,153.5h34.4v34.7c0,0,0,0,0,0s0,0,0,0V223h-34.4V153.5z M195.3,153.5h34.4v34.3
		c0,0.1,0,0.3,0,0.4c0,0.1,0,0.3,0,0.4V223h-34.4V153.5z M152.3,195.2h29v28.3c0,7.4,6,13.4,13.4,13.4h35.5c7.4,0,13.4-6,13.4-13.4
		v-28.3h188.6v28.3c0,7.4,6,13.4,13.4,13.4h35.5c7.4,0,13.4-6,13.4-13.4v-28.3h29c2.2,0,4,2.1,4,4.8v56.2H148.3V200
		C148.3,197.4,150.1,195.2,152.3,195.2z M523.7,523.2H152.3c-2.2,0-4-2.1-4-4.8V270.2h379.4v248.2
		C527.7,521,525.9,523.2,523.7,523.2z"/>
	<path class="st1" d="M178,348.5h44.2c3.9,0,7-3.1,7-7v-44.2c0-3.9-3.1-7-7-7H178c-3.9,0-7,3.1-7,7v44.2
		C171,345.4,174.2,348.5,178,348.5z M185,304.3h30.2v30.2H185V304.3z"/>
	<path class="st1" d="M314.2,290.3h-44.2c-3.9,0-7,3.1-7,7v44.2c0,3.9,3.1,7,7,7h44.2c3.8,0,7-3.1,7-7v-44.2
		C321.2,293.4,318,290.3,314.2,290.3z M307.2,334.5h-30.2v-30.2h30.2V334.5z"/>
	<path class="st1" d="M406.1,290.3h-44.2c-3.9,0-7,3.1-7,7v44.2c0,3.9,3.1,7,7,7h44.2c3.9,0,7-3.1,7-7v-44.2
		C413.1,293.4,410,290.3,406.1,290.3z M399.1,334.5h-30.2v-30.2h30.2V334.5z"/>
	<path class="st1" d="M498,290.3l-44.2,0c-3.9,0-7,3.1-7,7v44.2c0,3.9,3.1,7,7,7H498c3.9,0,7-3.1,7-7v-44.2
		C505,293.4,501.9,290.3,498,290.3z M491,334.5h-30.2v-30.2H491V334.5z"/>
	<path class="st1" d="M314.2,367.6h-44.2c-3.9,0-7,3.1-7,7v44.2c0,3.9,3.1,7,7,7h44.2c3.8,0,7-3.1,7-7v-44.2
		C321.2,370.7,318,367.6,314.2,367.6z M307.2,411.8h-30.2v-30.2h30.2V411.8z"/>
	<path class="st1" d="M406.1,367.6h-44.2c-3.9,0-7,3.1-7,7v44.2c0,3.9,3.1,7,7,7h44.2c3.9,0,7-3.1,7-7v-44.2
		C413.1,370.7,410,367.6,406.1,367.6z M399.1,411.8h-30.2v-30.2h30.2V411.8z"/>
	<path class="st1" d="M498,367.6l-44.2,0c-3.9,0-7,3.1-7,7v44.2c0,3.9,3.1,7,7,7H498c3.9,0,7-3.1,7-7v-44.2
		C505,370.7,501.9,367.6,498,367.6z M491,411.8h-30.2v-30.2H491V411.8z"/>
	<path class="st1" d="M222.3,444.8H178c-3.9,0-7,3.1-7,7v44.2c0,3.9,3.1,7,7,7h44.2c3.9,0,7-3.1,7-7v-44.2
		C229.2,448,226.1,444.8,222.3,444.8z M215.2,489.1H185v-30.2h30.2V489.1z"/>
	<path class="st1" d="M314.2,444.8h-44.2c-3.9,0-7,3.1-7,7v44.2c0,3.9,3.1,7,7,7h44.2c3.8,0,7-3.1,7-7v-44.2
		C321.2,448,318,444.8,314.2,444.8z M307.2,489.1h-30.2v-30.2h30.2V489.1z"/>
	<path class="st1" d="M406.1,444.8h-44.2c-3.9,0-7,3.1-7,7v44.2c0,3.9,3.1,7,7,7h44.2c3.9,0,7-3.1,7-7v-44.2
		C413.1,448,410,444.8,406.1,444.8z M399.1,489.1h-30.2v-30.2h30.2V489.1z"/>
	<path class="st1" d="M498,444.8l-44.2,0c-3.9,0-7,3.1-7,7v44.2c0,3.9,3.1,7,7,7H498c3.9,0,7-3.1,7-7v-44.2
		C505,448,501.9,444.8,498,444.8z M491,489.1h-30.2v-30.2H491V489.1z"/>
	<path class="st1" d="M219.9,373.8L189,404.7l-8.7-8.7c-2.7-2.7-7.2-2.7-9.9,0c-2.7,2.7-2.7,7.2,0,9.9l13.6,13.6h0
		c2.7,2.7,7.1,2.7,9.9,0l35.8-35.8c2.7-2.7,2.7-7.2,0-9.9C227,371.1,222.6,371.1,219.9,373.8z"/>
</g>
</svg>
