<?xml version="1.0" encoding="utf-8"?>
<!-- Generator: Adobe Illustrator 26.1.0, SVG Export Plug-In . SVG Version: 6.00 Build 0)  -->
<svg version="1.1" id="Capa_1" xmlns="http://www.w3.org/2000/svg" xmlns:xlink="http://www.w3.org/1999/xlink" x="0px" y="0px"
	 viewBox="0 0 675.1 675.1" style="enable-background:new 0 0 675.1 675.1;" xml:space="preserve">
<style type="text/css">
	.st0{fill:#F2F2F2;}
	.st1{fill-rule:evenodd;clip-rule:evenodd;fill:#554E94;}
</style>
<circle class="st0" cx="337.6" cy="337.6" r="337.6"/>
<g>
	<path class="st1" d="M364.7,191.8c-0.1,0.9-0.1,1.8,0.6,2.4c0.6,0.7,1.4,0.8,2.3,0.8l22.5,0.2c3.7,2.5,10,6.9,14.7,6.9
		s11-4.4,14.7-6.9L442,195c0.8,0,1.8-0.1,2.3-0.8c0.7-0.7,0.7-1.5,0.6-2.4c-1.9-15.3-7.3-35.6-11.9-48.1
		c-4.7-12.8-14.8-18.9-28.3-18.9c-13.4,0-23.6,6.1-28.4,18.9C372,156.1,366.5,176.5,364.7,191.8z M236.1,133.1
		c17.4,0,31.4,14,31.4,31.4c0,17.3-11.1,44-31.4,44c-20.2,0-31.3-26.8-31.3-44C204.8,147.1,218.8,133.1,236.1,133.1z M258.4,219
		l27.4,10.3c10.3,3.9,17.3,12.4,19.1,23.1l8,45.2c1.9,10.3,1.5,19.3-1.2,29.5l-15.9,58.7c-1.9,6.8-7.7,11.4-14.7,11.4h-1.9
		L272,528.7c-0.5,8-7,14.5-15,14.5h-41.7c-8,0-14.7-6.4-15-14.5l-7.5-131.5H191c-7.1,0-12.8-4.6-14.7-11.4l-15.9-58.7
		c-2.7-10.2-3.2-19.2-1.3-29.5l8-45.2c1.9-10.7,8.9-19.2,19.2-23.1l27.4-10.3c3.1-1.2,5.8-1.2,8.9-0.7l9.9,2.3c2.4,0.6,4.5,0.6,7,0
		l9.9-2.3C252.6,217.8,255.3,217.8,258.4,219L258.4,219z M246,232.6c-2.2,0.4-5.5,0.8-9.4,0.8c-4.4,0-8-0.5-10.1-1.3
		c-0.5,0-0.8,0.3-0.8,0.5c-0.7,1.9,0.6,3.5,1.9,5.1l3.3,4.3l-6,83.5c-0.2,2.1,0.2,4.1,1.4,6l7.3,8.7c0.6,1,1.6,1.4,2.6,1.4
		s2.1-0.4,2.7-1.4l7.2-8.7c1.3-1.9,1.7-3.9,1.5-6l-6-83.5l3.3-4.3c1.2-1.4,2.5-3.1,2.1-4.8c-0.2-0.2-0.2-0.4-0.4-0.4
		C246.3,232.5,246.3,232.5,246,232.6L246,232.6z M436.3,216.6l-4.3-4.9c-3.1-1.3-5-0.9-7.4,2.1l-18.7,22c-0.7,0.7-1.8,0.7-2.4,0
		l-18.7-22c-2.3-3.1-4.3-3.5-7.4-2.1l-7,4.9c-32.7,13.8-7.1,78.5-11,111.5c-36.7,37.5-62.8,136.6-66.9,195.3
		c-0.4,6.2,3.5,11.7,9.5,13.2c71.1,17.8,139.1,19.4,203.8,4.8c5.2-1.1,9-5.2,9.7-10.5c8.9-61.2-24.1-169.8-71.3-202.8
		C434.1,328.1,472.7,231.9,436.3,216.6z"/>
</g>
</svg>
