<?xml version="1.0" encoding="utf-8"?>
<!-- Generator: Adobe Illustrator 26.1.0, SVG Export Plug-In . SVG Version: 6.00 Build 0)  -->
<svg version="1.1" id="Capa_1" xmlns="http://www.w3.org/2000/svg" xmlns:xlink="http://www.w3.org/1999/xlink" x="0px" y="0px"
	 viewBox="0 0 676.1 676.1" style="enable-background:new 0 0 676.1 676.1;" xml:space="preserve">
<style type="text/css">
	.st0{fill:#554E94;}
	.st1{fill:#F2F2F2;}
</style>
<path class="st0" d="M338.1,0L338.1,0C151.4,0,0,151.4,0,338.1v0c0,186.7,151.4,338.1,338.1,338.1h0
	c186.7,0,338.1-151.4,338.1-338.1v0C676.1,151.4,524.8,0,338.1,0z"/>
<g>
	<path class="st1" d="M357.8,191.3c4.3,0,8.3-1.6,11.5-4.4c11.4-10.1,12.5-27.5,2.4-38.9l-8.2-9.4c-1.8-2.1-4.9-2.2-7-0.4l-9.3,8.2
		c-11.4,10.1-12.5,27.5-2.4,38.9C348.1,189.1,352.9,191.3,357.8,191.3z M353.7,153.8l5.6-4.9l4.9,5.6c6.5,7.3,5.8,18.6-1.5,25
		c-0.1,0.1-0.2,0.2-0.4,0.3l0.7-10.8c0.2-2.7-1.9-5.1-4.6-5.3c-2.7-0.2-5.1,1.9-5.3,4.6l-0.7,10.8c-0.1-0.1-0.2-0.2-0.3-0.3
		C345.8,171.6,346.4,160.3,353.7,153.8z"/>
	<path class="st1" d="M393.9,319.8c-9.3-2.4-18.7,3.2-21.1,12.5c0,0,0,0,0,0.1c-3.7,14.8,5.2,29.7,19.9,33.5l12.1,3
		c2.6,0.7,5.3-0.9,6-3.5l3-12C417.6,338.5,408.7,323.6,393.9,319.8z M404.3,350.8l-1.8,7.2l-7.2-1.8c-9.4-2.5-15.2-12.1-12.8-21.5
		c0.1-0.2,0.1-0.3,0.2-0.5l5.5,9.3c1.4,2.3,4.4,3.1,6.7,1.7c2.3-1.4,3.1-4.4,1.7-6.7l-5.5-9.3c0.2,0,0.3,0.1,0.5,0.1
		C400.9,331.7,406.7,341.3,404.3,350.8z"/>
	<path class="st1" d="M183.8,169.8c0-9.3-7.6-16.8-16.8-16.8c-9.3,0-16.8,7.5-16.8,16.8s7.6,16.8,16.8,16.8
		C176.2,186.7,183.8,179.1,183.8,169.8z M160,169.8c0-3.9,3.1-7,7-7c3.9,0,7,3.1,7,7c0,3.9-3.1,7-7,7
		C163.1,176.8,160,173.7,160,169.8z"/>
	<path class="st1" d="M477.3,262.1c-9.3,0-16.8,7.6-16.8,16.8c0,9.3,7.6,16.8,16.8,16.8s16.8-7.6,16.8-16.8
		C494.1,269.7,486.5,262.1,477.3,262.1z M477.3,285.9c-3.9,0-7-3.1-7-7c0-3.9,3.1-7,7-7c3.9,0,7,3.1,7,7
		C484.2,282.8,481.1,285.9,477.3,285.9z"/>
	<path class="st1" d="M514.5,167.4c-3.9-1.3-8-1.6-11.9-0.8c-2.5-3.1-5.7-5.6-9.4-7.1c-8.3-3.1-16.9,0.2-22,8.3
		c-6.6,10.8-5.5,28.7,11.8,44.5c0.1,0.1,0.2,0.2,0.2,0.2c0.6,0.4,1.1,0.8,1.8,1.1c0.7,0.2,1.4,0.4,2.2,0.5c0.1,0,0.2,0.1,0.2,0.1
		h0.1c23.4-0.8,36-13.3,38.2-25.9C527.2,178.8,522.8,170.6,514.5,167.4z M515.8,186.6c-1.4,8.4-10.3,16.9-27.3,17.6
		c-12.3-11.7-13.5-24.1-9.1-31.1c2.5-4.1,6.4-5.7,10.2-4.3c2.4,0.9,4.8,3,6.8,6.1c1.1,1.8,3.4,2.6,5.4,2c3.6-1,6.7-1.1,9.1-0.2
		C514.9,178,516.7,181.8,515.8,186.6z"/>
	<path class="st1" d="M214.5,258.9c1.6-9.5-2.7-17.7-11.1-20.9c-3.9-1.4-8-1.6-11.9-0.8c-2.5-3.1-5.7-5.6-9.4-7.1
		c-8.3-3.1-16.9,0.2-22,8.3c-6.6,10.8-5.5,28.7,11.8,44.5c0.1,0.1,0.2,0.2,0.2,0.2c0.6,0.4,1.1,0.8,1.8,1.1c0.7,0.2,1.4,0.4,2.2,0.5
		c0.1,0,0.2,0.1,0.2,0.1C199.7,283.9,212.4,271.5,214.5,258.9z M204.7,257.2c-1.4,8.4-10.3,16.9-27.3,17.6
		c-12.3-11.7-13.5-24.1-9.1-31.1c2.5-4.1,6.4-5.7,10.2-4.3c2.4,0.9,4.8,3,6.8,6.1c1.1,1.8,3.4,2.6,5.4,2c3.6-1,6.7-1.1,9.1-0.2
		C203.7,248.6,205.5,252.4,204.7,257.2z"/>
	<path class="st1" d="M428.8,172.9c-24.4-8.8-51.3,3.9-60.1,28.3c-8.8,24.4,3.9,51.3,28.3,60.1c1.1,0.4,2.3,0.7,3.4,1.1
		c-3.4,1.2-6.3,3.4-8.3,6.3c-4.7-12-14.3-22-27.3-26.9c-3.5-1.3-7.2-2.2-10.9-2.6c7.6-5.6,12.1-14.9,11.2-25l-1.2-12.3
		c-0.2-2.7-2.7-4.7-5.4-4.4l-12.3,1.2c-9.9,1-18.1,7.1-22.2,15.6c-4.1-12.7-13.5-23.6-26.8-29.2c-5.7-2.4-11.7-3.5-17.9-3.5
		c-1.4,0-2.9,0.1-4.3,0.2c-24.2,2.2-42.7,22.5-42.7,46.8c0,1,0,2.1,0.1,3.1c1.5,21.8,17.6,39.5,38.5,43.3c-4.8,4.6-8,11-8.5,18.2
		l-0.7,12.4c-0.2,2.7,1.9,5.1,4.6,5.3l12.4,0.7c0.6,0,1.1,0.1,1.6,0.1c9.6,0,18.1-4.9,23-12.4c3.1,10.6,9.9,19.9,19.5,26.1
		c-10.2,0.1-19.8,5.7-24.5,15.2c-16.3-8.8-31.1-19.9-44.1-33.1l-5.1-5.2c-1.9-2-5-2-7-0.1c-0.9,0.9-1.4,2.1-1.5,3.4l-2.9,83.2
		c-2.5,1.2-4.4,3.5-4.9,6.3l-3,15.6l-9.8,12.6c-3,3.9-2.3,9.4,1.6,12.4c1.5,1.1,3.4,1.8,5.3,1.9l3.1,0.2l-0.3,0.7
		c-14.5,6.1-30.8,20.6-40.1,36.1c-2.1,3.4-3.9,6.4-5.7,9.3l-2.8,4.2c-1.5,2.3-0.8,5.3,1.4,6.8c0.2,0.2,0.4,0.2,0.7,0.3l96.2,43.5
		c2.5,1.1,5.4,0,6.5-2.5l1.6-5.6c1-3.6,2.1-7.3,3.2-10.4c5.6-17.2,5.7-39,0.7-53.9l0.5-1.1l3,3c1.6,1.9,4,2.9,6.5,2.9
		c0.7,0,1.6-0.1,2.3-0.3c3.3-0.9,5.8-3.5,6.4-6.9l3-15.6l9.8-12.6c1.7-2.2,2.3-5.1,1.6-7.8c-0.1-0.3-0.2-0.6-0.3-0.9l60-55.6
		c2.1-1.6,2.2-4.8,0.3-6.7c-0.8-0.9-2.1-1.5-3.3-1.6l-7.5-0.6c-12.1-0.9-24.1-3-35.8-6.2c2-2.8,3.4-5.9,4.3-9.2
		c1.5-5.6,0-11.2-3.4-15.4c22.3,4.7,45.4-7.5,53.6-29.6c0.8-2.2,1.5-4.4,2-6.6c4.7,6.4,12.1,10.7,20.5,11.2l12.4,0.7
		c0.1,0,0.2,0,0.3,0c2.6,0,4.8-2.1,4.9-4.6l0.7-12.4c0-0.6,0.1-1.1,0.1-1.6c-0.2-11.2-6.6-20.7-16.1-25.1
		c18.4-1.7,34.3-14.1,40.2-31.9C465.6,207.8,452.9,181.5,428.8,172.9z M361.3,251c7.4,2.8,13.7,7.8,18.1,14.4
		c-2.4,5-5.7,9.4-9.9,13.1c-1.2-12.3-12.2-21.3-24.6-20.1c-4.8,0.5-9.2,2.5-12.7,5.6c-0.4-4-0.2-8,0.5-12
		C341.7,247.9,352,247.5,361.3,251z M359.8,280.5c0.1,2.3-1.6,4.4-3.9,4.8c-4.8,0.9-10.1,0.7-15.8-0.7c-1.4-1.9-2.5-3.9-3.6-5.9
		c-0.8-1.6-0.7-3.5,0.3-5c3.2-4.7,9.3-6.7,14.8-4.7C356.5,270.9,359.7,275.5,359.8,280.5z M347.1,208.3l7.5-0.7l0.7,7.5
		c1,9.8-6.2,18.4-15.8,19.4c-0.2,0-0.3,0-0.5,0l6.8-8.4c1.7-2.1,1.5-5.2-0.7-7c-2.1-1.7-5.2-1.5-7,0.7c0,0,0,0.1-0.1,0.1l-6.8,8.3
		c0-0.2-0.1-0.3-0.1-0.5c-0.1-0.7-0.1-1.2-0.1-1.8C331.2,216.9,338.1,209.2,347.1,208.3z M325.2,238c1.5,1.7,3.2,3.2,5.3,4.3
		c-1.5,0.6-2.9,1.3-4.4,2.1c-1.2,0.7-2.4,1.3-3.4,2.1C323.8,243.6,324.7,240.8,325.2,238z M312,211c-7.4,8.2-14.9,14.5-22.5,18.7
		c2-4.7,3-9.7,3-14.7c0.1-9.5-3.4-17.6-6.9-23.2C297,193.9,306.7,201,312,211z M242.1,228.5c0-9.9,3.9-19.3,10.8-26.2
		c5.6-5.6,12.8-9.3,20.6-10.5c3.6,4.3,6.3,9.2,8,14.4c-2.3-0.7-4.8-1.1-7.1-1.1h-0.1c-12.4,0-22.4,10-22.4,22.4
		c0,2.3,0.3,4.5,1.1,6.7c-3.9-1.3-7.5-3.1-10.8-5.4C242.1,228.7,242.1,228.5,242.1,228.5z M281.9,221.6c-0.7,2.6-1.6,5.3-2.8,7.6
		c-2.1,4.2-6.4,7-11.1,7.2c-0.7,0-1.5,0.1-2.2,0c-2.5-2.4-3.9-5.6-3.9-8.9c-0.1-6.8,5.3-12.4,12.1-12.5c0.1,0,0.2,0,0.2,0
		c1.6,0,3.2,0.2,4.7,0.9C281.1,216.9,282.5,219.3,281.9,221.6z M298.1,285c-0.6,9.4-8.3,16.7-17.6,16.7c-0.4,0-0.7,0-1.1,0l-7.5-0.5
		l0.5-7.5c0.6-9.8,9-17.2,18.8-16.6c0.2,0,0.3,0,0.5,0.1l-8,7.1c-2.1,1.8-2.2,4.9-0.4,7c1.8,2.1,4.9,2.2,7,0.4l7.9-7.2
		C298.1,284.7,298.1,284.8,298.1,285z M304.4,269.3c-0.4,1.1-0.8,2.3-1.1,3.4c-0.7-0.9-1.6-1.6-2.6-2.4c1.5-0.7,3-1.6,4.4-2.5
		C304.7,268.3,304.5,268.8,304.4,269.3z M286,265.2c-2.2,0.4-4.4,0.7-6.6,0.7h-0.1c-15.5-0.1-29.4-9.8-34.8-24.3
		c5.3,2.5,11.1,4,16.9,4.5c1.6,0.2,3.1,0.2,4.7,0.2c4.3,0,8.5-0.6,12.6-1.6c12.6-3.1,25.1-10.9,37-23.1
		C319.6,241.8,306.3,261.4,286,265.2z M305.8,348.6L305.8,348.6v-0.2c2.5-9.4,12.1-15.2,21.5-12.7c0.2,0,0.3,0.1,0.5,0.2l-9.3,5.5
		c-2.4,1.4-3.1,4.4-1.8,6.7c1.4,2.4,4.4,3.1,6.7,1.8c0,0,0.1,0,0.1-0.1l9.2-5.5c0,0.2-0.1,0.3-0.1,0.5c-1.1,4-3.4,7.6-6.8,10
		c-4.3,3-9.6,4.1-14.7,2.8l-7.2-1.8L305.8,348.6z M229.1,427.8l9.3-12c0.5-0.6,0.8-1.3,1-2.1l2.9-14.9l18.1,18l-1.1,2.5l-10.1-4.4
		c-2.5-1.1-5.4,0.1-6.5,2.5c-1.1,2.5,0.1,5.4,2.5,6.5l10,4.4l-0.6,1.3L229.1,427.8z M271.8,449.1c1.4,0.7,2.9,0.8,4.4,0.5l8.5,8.3
		l-0.8,1.8l-43.8-19.8l0.7-1.4l13,0.9c0.7,1.3,1.9,2.3,3.3,3L271.8,449.1z M263.2,434.3l6.5-14.4l10.3,4.7l-6.5,14.4L263.2,434.3z
		 M203.2,493.5l-10.6-4.8c1.8-2.8,3.5-5.7,5.6-9c8.1-13.5,22.6-26.7,35.1-32l8.2,3.7c-13.1,8-24.1,19-32.1,32.1L203.2,493.5z
		 M212.3,497.6c1.8-2.8,3.5-5.7,5.6-9c8-13.5,22.6-26.7,35.1-31.9l0.8,0.3l-22.3,49.3L212.3,497.6z M262.8,508.9
		c-1.1,3.4-2.1,6.8-3.1,10.2l-19.2-8.7l22.3-49.3l0.8,0.3C267.8,474.2,267.6,493.9,262.8,508.9z M281.4,517.3c-1,3-2.1,6.6-3.1,10.2
		l-9.6-4.4l3.4-11.2c4.5-14.7,5.5-30.2,2.9-45.3l7.2,3.3C286.6,482.8,286.2,502.3,281.4,517.3z M304.8,443.3c-0.5,0.6-0.8,1.3-1,2.1
		l-2.9,14.9l-18.1-18l0.5-1.1l10.4,4.1c2.5,1,5.4-0.2,6.4-2.8c1-2.5-0.2-5.4-2.8-6.4l-9.9-3.9l1.2-2.7l25.4,1.8L304.8,443.3z
		 M363.2,377.7l-47.4,43.9l-26.2-1.8c-0.7-1.3-1.9-2.3-3.3-3l-7.6-3.4l14.9-14.8C312,380.6,338,372.8,363.2,377.7z M339.1,366.9
		c-19.7,2.1-38,10.9-52.1,24.8l-18,17.7c-0.7,0-1.2,0-1.8,0.1l-19.5-19.2l2.5-73.1c13.4,13,28.6,24.1,45.1,32.8l-2.1,8.1
		c-0.7,2.6,0.9,5.3,3.5,6l12.1,3c7.1,1.8,14.4,0.7,20.8-3C332.7,365.1,335.9,366,339.1,366.9z M335.6,320.6c-0.1,0-0.2-0.1-0.2-0.1
		c-19.2-7.2-29-28.6-21.8-47.8c1.9-5,4.8-9.5,8.6-13.3c-0.1,5.9,0.9,11.7,2.8,17.2c0,0.1,0.1,0.2,0.1,0.2c1.9,5.4,4.7,10.5,8.3,14.9
		c8,10.3,20.3,18.4,36.4,24.1C359.8,323.2,347,324.8,335.6,320.6z M383.2,298.8c-1.3,3.4-3.1,6.7-5.4,9.7
		c-10.6-3.4-19.3-7.6-26.4-12.7c4.9-0.2,9.7-1.2,14.2-3.1c8.9-3.9,14.9-10.4,18.7-16C386.2,283.9,385.8,291.7,383.2,298.8z
		 M378.4,230.7c-7.6-19.1,1.9-40.6,20.9-48.2c4.4-1.7,8.9-2.5,13.5-2.5c0.7,0,1.3,0,2,0.1c-8.9,7.8-14.8,18.5-16.7,30.1
		c-2.2,12.9,0,27.4,6.4,43.2C392.7,250.6,382.9,242.2,378.4,230.7z M427.5,208.4c1.9,4.8,0.6,10.3-3,13.7c-1.7,1.6-4.4,1.7-6.2,0.3
		c-2.3-1.7-4.4-3.9-6.2-6.3c-2.8-3.6-3.4-8.5-1.7-12.6c0.3-0.7,0.6-1.5,0.9-2.2C417.7,198.7,425.1,201.9,427.5,208.4z M423.5,288.7
		c-0.1,0.5-0.1,0.9-0.2,1.2l-0.5,7.5l-7.5-0.5c-9.8-0.6-17.2-9-16.6-18.8c0-0.2,0-0.3,0.1-0.5l7.1,8c1.8,2.1,4.9,2.2,7,0.5
		c2.1-1.8,2.2-4.9,0.5-7c0,0,0,0,0-0.1l-7.1-8c0.2,0,0.3,0,0.5,0C416.2,271.6,423.5,279.3,423.5,288.7z M426.6,251.7
		c-3.4,1.4-7.1,2.2-10.8,2.5c-4.6-10.1-7.3-19.5-8.2-28.1c3,3.2,6.6,5.8,10.6,7.9c5.8,2.9,12.2,4.4,18.7,4.3c2.3,0,4.7-0.2,7-0.5
		C439.7,244,433.7,248.9,426.6,251.7z M448.9,226.6c-5.3,1.6-10.9,2.1-16.4,1.5c8.3-9.2,7.6-23.4-1.6-31.7c-3.5-3.2-8-5.2-12.7-5.7
		c2.7-3,5.8-5.6,9.3-7.7c9.1,3.9,16.3,11.2,20,20.5C450.4,210.8,450.9,218.9,448.9,226.6z"/>
</g>
</svg>
