<?xml version="1.0" encoding="utf-8"?>
<!-- Generator: Adobe Illustrator 26.1.0, SVG Export Plug-In . SVG Version: 6.00 Build 0)  -->
<svg version="1.1" id="Capa_1" xmlns="http://www.w3.org/2000/svg" xmlns:xlink="http://www.w3.org/1999/xlink" x="0px" y="0px"
	 viewBox="0 0 675.1 675.1" style="enable-background:new 0 0 675.1 675.1;" xml:space="preserve">
<style type="text/css">
	.st0{fill:#554E94;}
	.st1{fill:#F2F2F2;}
</style>
<circle class="st0" cx="337.6" cy="337.6" r="337.6"/>
<g>
	<path class="st1" d="M400.1,254.2c-67.4,0-122.2,54.9-122.2,122.3s54.8,122.3,122.2,122.3s122.2-54.9,122.2-122.3
		S467.6,254.2,400.1,254.2z M288.3,376.5c0-37.1,18.5-71.8,49.2-92.6c51.2,34.7,64.6,104.3,29.9,155.4
		c-7.9,11.7-18.1,21.9-29.9,29.9C306.7,448.4,288.3,413.6,288.3,376.5z M367.1,483.4c-6.8-2.2-13.5-4.9-19.7-8.3
		c54.5-40.1,66.1-116.7,26-171.1c-7.3-9.9-16.1-18.7-26-26c6.3-3.4,12.9-6.1,19.7-8.3c59.1,50.9,65.5,140.1,14.6,199.2
		C377.2,474,372.3,478.9,367.1,483.4L367.1,483.4z M400.1,488.4L400.1,488.4c-7,0-13.9-0.7-20.8-2c60.7-57.8,63.1-153.8,5.4-214.4
		c-1.7-1.8-3.5-3.6-5.4-5.4c6.8-1.3,13.8-2,20.8-2c61.6,0,111.8,50.2,111.8,111.9C511.9,438.3,461.8,488.4,400.1,488.4z"/>
	<path class="st1" d="M204.8,449.6c2.1,2,5.4,2,7.4-0.2c2-2.1,2-5.4-0.2-7.4c-36.2-34.7-37.3-92.2-2.6-128.4
		c0.3-0.3,0.6-0.6,0.9-0.9c2.1-2.1,2-5.4-0.1-7.4s-5.4-2-7.4,0.1c-39.4,39.8-39,103.9,0.8,143.2C204,448.9,204.3,449.2,204.8,449.6z
		"/>
	<path class="st1" d="M220.2,302.8L220.2,302.8c1,0,2.2-0.3,3-0.9c2.2-1.5,4.4-2.9,6.6-4.2c2.5-1.5,3.3-4.7,1.8-7.2
		c-1.5-2.4-4.6-3.3-7.1-1.9c-2.5,1.5-5,3-7.4,4.7c-2.4,1.6-2.9,4.9-1.3,7.3C216.9,302,218.5,302.8,220.2,302.8z"/>
	<path class="st1" d="M433.6,228.6v-18.5c0-1.7-0.8-3.3-2.2-4.2l35.3-31.5c2.1-1.8,2.3-4.9,0.7-7.1l-23.3-30.5
		c-1-1.3-2.5-2.1-4.1-2.1h-79.9c-1.6,0-3.2,0.8-4.1,2.1l-23.2,30.5c-1.6,2.2-1.4,5.3,0.7,7.1l35.2,31.5c-1.4,0.9-2.2,2.6-2.3,4.2
		v18.5c-9.9,2.2-19.6,5.5-28.8,9.8c-19.7-9-41-13.6-62.6-13.6c-83.6,0-151.5,68-151.5,151.7S191.4,528.2,275,528.2
		c21.6,0.1,43-4.6,62.6-13.6c19.7,9,41,13.6,62.6,13.6c83.6,0,151.5-68,151.5-151.7C551.7,304.4,501.1,243.9,433.6,228.6z
		 M452.6,165.4h-25.3l12.6-16.6L452.6,165.4z M429.4,145.3l-15.3,20.1H386l-15.2-20.1H429.4z M360.2,148.9l12.7,16.6h-25.3
		L360.2,148.9z M350.7,175.9h98.8l-32.7,28.8h-33.4L350.7,175.9z M423.2,215.3v11.4c-15.4-2.3-31-2.3-46.4,0.1v-11.4L423.2,215.3
		L423.2,215.3z M274.9,517.7c-77.8,0-141.1-63.3-141.1-141.2s63.3-141.2,141.1-141.2c17.3,0,34.4,3.1,50.4,9.3
		c-6.9,4-13.6,8.5-19.8,13.4c-10-2.6-20.3-3.9-30.6-3.9c-62,0-113.4,46.4-121.2,106.4c-0.3,2.8,1.6,5.5,4.5,5.9
		c0.3,0,0.4,0.1,0.7,0.1l0,0c2.7,0,4.8-2,5.2-4.6c7.2-54.7,54.1-97.2,110.8-97.2c7,0,14,0.7,20.9,2c-60.7,57.6-63.2,153.4-5.6,214.2
		c1.8,1.9,3.7,3.8,5.6,5.6c-6.9,1.3-13.9,2-20.9,2c-55.3,0-101.3-40.3-110.2-93.1c-0.4-2.8-3-4.9-5.9-4.5c-2.8,0.4-4.9,3-4.5,5.9
		c0,0.1,0,0.2,0.1,0.3c9.8,57.8,60.1,101.8,120.5,101.8c10.4,0,20.6-1.3,30.6-3.9c6.2,5,12.9,9.5,19.8,13.4
		C309.2,514.6,292.1,517.8,274.9,517.7z M400.1,517.7c-77.8,0-141.1-63.3-141.1-141.2s63.3-141.2,141.1-141.2
		s141.1,63.3,141.1,141.2S477.9,517.7,400.1,517.7z"/>
</g>
</svg>
