<?xml version="1.0" encoding="utf-8"?>
<!-- Generator: Adobe Illustrator 26.1.0, SVG Export Plug-In . SVG Version: 6.00 Build 0)  -->
<svg version="1.1" id="Capa_1" xmlns="http://www.w3.org/2000/svg" xmlns:xlink="http://www.w3.org/1999/xlink" x="0px" y="0px"
	 viewBox="0 0 675.1 675.1" style="enable-background:new 0 0 675.1 675.1;" xml:space="preserve">
<style type="text/css">
	.st0{fill:#554E94;}
	.st1{fill:#F2F2F2;}
</style>
<circle class="st0" cx="337.6" cy="337.6" r="337.6"/>
<g>
	<path class="st1" d="M241.8,291.6c2.8,0,5.2-2.3,5.2-5.2v-3.6c0-2.8-2.3-5.2-5.2-5.2c-2.8,0-5.2,2.3-5.2,5.2v3.6
		C236.7,289.3,238.9,291.6,241.8,291.6z"/>
	<path class="st1" d="M241.8,395.4c2.8,0,5.2-2.3,5.2-5.2v-84.5c0-2.8-2.3-5.2-5.2-5.2c-2.8,0-5.2,2.3-5.2,5.2v84.5
		C236.7,393.1,238.9,395.4,241.8,395.4z"/>
	<path class="st1" d="M172.8,432.4H191v5.9c0,8.6,7,15.6,15.7,15.7h14.1c2.7,13.1,14.3,22.5,27.7,22.4h71.9v37.1h-65.1
		c-16.1-0.1-29.2,12.9-29.3,29v0.1c0,3.4,2.8,6.3,6.4,6.3c0.1,0,0.1,0,0.2,0h199.3c3.4,0.1,6.4-2.7,6.5-6.1c0-0.1,0-0.1,0-0.2
		c0-16.1-13.1-29.1-29.2-29.1h-0.1h-55v-37.1h71.9c13.4,0.1,25-9.3,27.7-22.4h13.8c8.8,0,16-7.2,16-16v-5.6h19.1
		c8.4,0.2,15.3-6.6,15.4-14.9c0-0.1,0-0.2,0-0.3v-10.3c0-2.8-2.2-5.5-5.1-5.5h-5.3V207.6c0-4.8-3.8-8.8-8.5-8.9h-15.6v-11
		c7.1-1.4,13.1-5.8,16.7-12.1c4.1-7,4.2-15.8,0.1-22.8c-0.1-0.2-0.2-0.3-0.3-0.4l-17.1-23.9c-0.9-1.4-2.5-2.2-4.2-2.2l0,0
		c-1.6,0-3.3,0.8-4.2,2.2l-17.1,23.9c-0.1,0.2-0.2,0.3-0.3,0.4c-4.1,7.1-4.1,15.9,0.2,22.9c3.4,5.9,9.1,10.2,15.8,11.8v11.2h-14.7
		c-4.8,0.2-8.6,4.1-8.5,8.9v193.7h-5.3c-2.8,0-5.1,2.7-5.1,5.5v10.3c0,8.4,6.8,15.2,15.2,15.2c0.1,0,0.2,0,0.3,0h18.2v5.6
		c0,3.1-2.5,5.6-5.6,5.6H341.9v-11.2h19.1c8.4,0.2,15.3-6.6,15.4-14.9c0-0.1,0-0.2,0-0.3v-10.3c0-2.8-2.2-5.5-5.1-5.5H366V207.6
		c0-4.8-3.8-8.8-8.5-8.9h-15.6v-11c7.1-1.4,13.1-5.8,16.7-12.1c4.1-7,4.2-15.8,0.1-22.8c-0.1-0.2-0.2-0.3-0.3-0.4l-17.2-23.9
		c-0.9-1.4-2.5-2.2-4.2-2.2l0,0c-1.6,0-3.3,0.8-4.2,2.2l-17.1,23.9c-0.1,0.2-0.2,0.3-0.3,0.4c-4.1,7.1-4.1,15.9,0.2,22.9
		c3.4,5.9,9.1,10.2,15.8,11.8v11.2h-14.7c-4.8,0.2-8.6,4.1-8.5,8.9v193.7h-5.3c-2.8,0-5.1,2.7-5.1,5.5v10.3
		c0,8.4,6.8,15.2,15.2,15.2c0.1,0,0.2,0,0.3,0h18.2v11.2h-45.7c-2.8,0-5.2,2.3-5.2,5.2s2.3,5.2,5.2,5.2h157
		c-2.4,7.2-9.3,12.2-17,12.1H248.3c-7.7,0.1-14.5-4.8-17-12.1h19.9c2.8,0,5.2-2.3,5.2-5.2s-2.3-5.2-5.2-5.2h-44.4
		c-3.1,0-5.6-2.5-5.6-5.6v-5.6h19.1c8.4,0.2,15.3-6.6,15.4-14.9c0-0.1,0-0.2,0-0.3v-10.3c0-2.8-2.2-5.5-5.1-5.5h-5.3V207.6
		c0-4.8-3.8-8.8-8.5-8.9h-15.6v-11c7.1-1.4,13.1-5.8,16.7-12.1c4.1-7,4.2-15.8,0.1-22.8c-0.1-0.2-0.2-0.3-0.3-0.4l-17.1-23.9
		c-0.9-1.4-2.5-2.2-4.2-2.2l0,0c-1.6,0-3.3,0.8-4.2,2.2l-17.1,23.9c-0.1,0.2-0.2,0.3-0.3,0.4c-4.1,7.1-4.1,15.9,0.2,22.9
		c3.4,5.9,9.1,10.2,15.8,11.8v11.2h-14.7c-4.8,0.2-8.6,4.1-8.5,8.9v193.7h-5.3c-2.8,0-5.1,2.7-5.1,5.5v10.3
		c0,8.4,6.8,15.2,15.2,15.2C172.6,432.4,172.7,432.4,172.8,432.4z M466,170.5c-2.3-3.8-2.4-8.5-0.3-12.3l12.8-17.8l12.8,17.8
		c2.2,3.9,2.1,8.5-0.3,12.2c-3.9,6.9-12.5,9.3-19.4,5.5C469.2,174.7,467.3,172.8,466,170.5z M460,209.1H497v43.5L460,212.2V209.1z
		 M460,227.4l37.1,40.4v27.8L460,255.2V227.4z M460,270.5l37.1,40.4v27.8L460,298.3V270.5z M460,313.6L497,354v27.8L460,341.4V313.6
		z M460,356.7l37.1,40.4v4.1H460V356.7z M454.7,422.1c-2.7,0.2-5-1.9-5.1-4.6c0-0.1,0-0.2,0-0.3v-5.5h57.8v5.5
		c0,2.7-2.2,4.8-4.8,4.8c-0.1,0-0.2,0-0.3,0H454.7L454.7,422.1z M324.6,170.5c-2.3-3.8-2.4-8.5-0.3-12.3l12.8-17.8l12.8,17.8
		c2.2,3.9,2.1,8.5-0.3,12.2c-3.9,6.9-12.5,9.3-19.4,5.5C327.8,174.7,325.9,172.8,324.6,170.5L324.6,170.5z M318.6,209.1h37.1v43.5
		l-37.1-40.4V209.1z M318.6,227.4l37.1,40.4v27.8l-37.1-40.4V227.4z M318.6,270.5l37.1,40.4v27.8l-37.1-40.4V270.5z M318.6,313.6
		l37.1,40.4v27.8l-37.1-40.4V313.6z M318.6,356.7l37.1,40.4v4.1h-37.1V356.7z M313.3,422.1c-2.7,0.2-5-1.9-5.1-4.6
		c0-0.1,0-0.2,0-0.3v-5.5H366v5.5c0,2.7-2.2,4.8-4.8,4.8c-0.1,0-0.2,0-0.3,0H313.3L313.3,422.1z M408.8,523.8
		c9.1,0,16.7,6,18.5,14.7H236.7c1.8-8.6,9.4-14.7,18.5-14.7H408.8z M330.6,476.4h12.9v37.1h-12.9V476.4z M184.1,170.5
		c-2.3-3.8-2.4-8.5-0.3-12.3l12.8-17.8l12.8,17.8c2.2,3.9,2.1,8.5-0.3,12.2c-3.9,6.9-12.5,9.3-19.4,5.5
		C187.3,174.7,185.4,172.8,184.1,170.5z M178,209.1h37.1v43.5L178,212.2V209.1z M178,227.4l37.1,40.4v27.8L178,255.2V227.4z
		 M178,270.5l37.1,40.4v27.8L178,298.3V270.5z M178,313.6l37.1,40.4v27.8L178,341.4V313.6z M178,356.7l37.1,40.4v4.1H178V356.7z
		 M167.7,411.7h57.8v5.5c0,2.7-2.2,4.8-4.8,4.8c-0.1,0-0.2,0-0.3,0h-47.5c-2.7,0.2-5-1.9-5.1-4.6c0-0.1,0-0.2,0-0.3L167.7,411.7
		L167.7,411.7z"/>
</g>
</svg>
