<?xml version="1.0" encoding="utf-8"?>
<!-- Generator: Adobe Illustrator 26.1.0, SVG Export Plug-In . SVG Version: 6.00 Build 0)  -->
<svg version="1.1" id="Capa_1" xmlns="http://www.w3.org/2000/svg" xmlns:xlink="http://www.w3.org/1999/xlink" x="0px" y="0px"
	 viewBox="0 0 675.1 675.1" style="enable-background:new 0 0 675.1 675.1;" xml:space="preserve">
<style type="text/css">
	.st0{fill:#F2F2F2;}
	.st1{fill:#554E94;}
</style>
<circle class="st0" cx="337.6" cy="337.6" r="337.6"/>
<circle class="st1" cx="1061.6" cy="338.4" r="337.6"/>
<g>
	<g>
		<rect x="232.5" y="393.3" class="st1" width="14" height="14"/>
		<rect x="232.5" y="421.3" class="st1" width="14" height="14"/>
		<path class="st1" d="M547.5,449.3v-56.2c0-15.4-8.4-29.5-21.9-36.9l-54-29.5l-7.4-29.5l1.8-0.8c15.5-6.6,25.5-21.8,25.5-38.6V246
			h7v-27.7h-7v-7c0-1.1-0.3-2.2-0.7-3.1l-2.5-4.9c2-1.3,3.2-3.5,3.2-5.9v-21c0-1.6-0.5-3.1-1.5-4.4l-11.5-14.4
			c-11.7-14.6-31.7-19.7-49-12.5l-59.7,24.9c-2.6,1.1-4.3,3.6-4.3,6.5c0,11.5,7,21.8,17.7,26l-2.9,5.8c-0.5,1-0.7,2.1-0.7,3.2v7h-7
			V246h7v11.9c0,16.8,10,32,25.5,38.6l1.8,0.8l-7.4,29.5l-54,29.5c-2.8,1.5-5.5,3.4-7.9,5.6c-2.4-2.2-5.1-4-7.9-5.6l-54-29.5
			l-7.4-29.5l1.8-0.8c15.5-6.6,25.5-21.8,25.5-38.6V246h7v-27.6h-7v-7c0-1.1-0.3-2.2-0.7-3.1l-2.5-4.9c2-1.3,3.2-3.5,3.2-5.9v-12.8
			c-0.1-12.2-9-22.5-21-24.3l-29-4.1c-5.7-12.3-20.3-17.5-32.6-11.8c-0.5,0.2-1,0.5-1.5,0.8l-17.2,9.6l6.8,12.2l17.3-9.6
			c5.1-2.8,11.5-1,14.3,4.1c0.3,0.5,0.5,0.9,0.7,1.4l10.3,27.5H187c-5.6,0-10.2-4.3-10.5-9.9l9-5l-6.8-12.2l-12.6,7
			c-2.2,1.2-3.6,3.6-3.6,6.1v3.5c0,13.2,10.5,24,23.7,24.5l-1.9,3.9c-0.5,1-0.7,2.1-0.7,3.1v7h-7V246h7v11.9c0,16.8,10,32,25.5,38.6
			l1.8,0.8l-7.4,29.5l-54,29.5c-13.5,7.4-21.9,21.5-21.9,36.9v115.7c0,13.5,11,24.5,24.5,24.5h371c13.5,0,24.5-11,24.5-24.5v-45.5
			h-14v45.5c0,5.8-4.7,10.5-10.5,10.5H421.5v-35h70c3.9,0,7-3.1,7-7v-63h-14v56h-95.1l12.8-12.8c16.4-16.4,16.4-43,0-59.4
			c-13.5-13.5-34.3-16.2-50.8-6.7c-0.3-6.6-2-13-5.2-18.7c1.8-1.7,3.7-3.1,5.8-4.2l30.9-16.8l25.7,38.5c1.3,1.9,3.5,3.1,5.8,3.1h0.2
			c2.4-0.1,4.6-1.3,5.8-3.4l8-13.3v37.7h14v-37.7l8,13.3c1.2,2.1,3.4,3.3,5.8,3.4h0.2c2.3,0,4.5-1.2,5.8-3.1l25.7-38.5l30.9,16.8
			c9,4.9,14.6,14.3,14.6,24.6v56.2H547.5z M270.3,346.6l7.8,23.5l-20.3-4.1l-7.6-11.4L270.3,346.6z M239.5,343.8l-23.1-9.2
			c-0.1-1.1,0-2.2,0.3-3.3l7.1-28.4l12.9,5.5c1.8,0.8,3.8,0.8,5.5,0l12.9-5.5l7.1,28.4c0.3,1.1,0.4,2.2,0.3,3.3L239.5,343.8z
			 M272.5,174.1c5.2,0.8,9,5.2,9,10.4v5.8h-23.1l-7.2-19.3L272.5,174.1z M197.5,257.9V213l4.3-8.6h75.4l4.3,8.6v44.9
			c0,11.2-6.7,21.3-17,25.7l-25,10.7l-25-10.7C204.2,279.2,197.5,269.1,197.5,257.9z M208.8,346.6l20.1,8l-7.6,11.4l-20.3,4.1
			L208.8,346.6z M253.5,519.3H152c-5.8,0-10.5-4.7-10.5-10.5V393.1c0-10.2,5.6-19.7,14.6-24.6l37.4-20.4l-9.7,29
			c-1.2,3.7,0.8,7.6,4.4,8.9c1.2,0.4,2.4,0.5,3.6,0.2l35-7c1.8-0.4,3.4-1.4,4.5-3l8.2-12.3l8.2,12.3c1,1.5,2.6,2.6,4.5,3l35,7
			c3.8,0.8,7.5-1.7,8.2-5.5c0.2-1.2,0.2-2.4-0.2-3.6l-9.7-29l37.4,20.4c9,4.9,14.6,14.3,14.6,24.6v10.3l-5.3-5.3
			c-16.4-16.4-43-16.3-59.4,0.2c-16.3,16.4-16.3,42.9,0,59.2l12.8,12.8h-95.1v-56h-14v63c0,3.9,3.1,7,7,7h70V519.3z M330.5,519.3
			h-63v-35h35c15.5,0,28,12.5,28,28V519.3z M407.5,484.3v35h-63v-7c0-15.5,12.5-28,28-28H407.5z M352.8,408
			c11-10.9,28.7-10.8,39.6,0.2c10.8,10.9,10.8,28.5,0,39.4l-22.8,22.8c-13,0.9-24.8,7.8-32,18.7c-7.2-10.9-19-17.8-32-18.7
			l-22.8-22.8c-10.9-10.9-10.9-28.7,0-39.6c10.9-10.9,28.7-10.9,39.6,0l10.3,10.3c2.7,2.7,7.2,2.7,9.9,0c0,0,0,0,0,0L352.8,408z
			 M380.2,180.7l54.7-22.8c11.5-4.8,24.8-1.4,32.6,8.4l10,12.5v11.5h-84C387.5,190.3,382.1,186.4,380.2,180.7z M393.5,257.9V213
			l4.3-8.5h75.4l4.3,8.5v44.9c0,11.2-6.7,21.3-17,25.7l-18,7.7v-17h-14v17l-18-7.7C400.2,279.2,393.5,269.1,393.5,257.9z
			 M414.2,373.2L396.8,347l4.1-2l24.5,9.8L414.2,373.2z M435.5,343.8l-23.1-9.2c-0.1-1.1,0-2.2,0.3-3.3l7.1-28.4l12.9,5.5
			c1.8,0.8,3.8,0.8,5.5,0l12.9-5.5l7.1,28.4c0.3,1.1,0.4,2.2,0.3,3.3L435.5,343.8z M456.9,373.2l-11.1-18.5l24.5-9.8l4.1,2
			L456.9,373.2z"/>
	</g>
</g>
</svg>
