<?xml version="1.0" encoding="utf-8"?>
<!-- Generator: Adobe Illustrator 26.1.0, SVG Export Plug-In . SVG Version: 6.00 Build 0)  -->
<svg version="1.1" id="Capa_1" xmlns="http://www.w3.org/2000/svg" xmlns:xlink="http://www.w3.org/1999/xlink" x="0px" y="0px"
	 viewBox="0 0 675.1 675.1" style="enable-background:new 0 0 675.1 675.1;" xml:space="preserve">
<style type="text/css">
	.st0{fill:#F2F2F2;}
	.st1{fill:#554E94;}
</style>
<circle class="st0" cx="337.6" cy="337.6" r="337.6"/>
<circle class="st1" cx="1061.6" cy="338.4" r="337.6"/>
<g>
	<path class="st1" d="M212.6,192.5C212.6,192.5,212.6,192.6,212.6,192.5c0.9,3.3,4.4,5.2,7.6,4.3c3.3-0.9,5.2-4.3,4.2-7.6l-7-24.9
		c-0.9-3.3-4.3-5.2-7.6-4.3c-3.3,0.9-5.2,4.3-4.3,7.6L212.6,192.5z"/>
	<path class="st1" d="M479.5,206.9l17.5-19.1c0,0,0,0,0,0c2.3-2.5,2.1-6.4-0.4-8.7c-2.5-2.3-6.4-2.1-8.7,0.4l-17.5,19.1c0,0,0,0,0,0
		c-2.3,2.5-2.1,6.4,0.4,8.7C473.3,209.6,477.2,209.4,479.5,206.9z"/>
	<path class="st1" d="M451.6,196.8c3.3,0.9,6.7-1,7.6-4.3l7-25c0.9-3.3-1-6.7-4.3-7.6c-3.3-0.9-6.7,1-7.6,4.3l-7.1,24.9
		C446.4,192.5,448.3,195.9,451.6,196.8z"/>
	<path class="st1" d="M192.3,206.9C192.3,206.9,192.3,206.9,192.3,206.9c2.3,2.5,6.2,2.7,8.7,0.4c2.5-2.3,2.7-6.2,0.4-8.7
		l-17.5-19.1c0,0,0-0.1-0.1-0.1c-2.3-2.5-6.2-2.6-8.7-0.3c-2.5,2.3-2.6,6.2-0.3,8.7L192.3,206.9z"/>
	<path class="st1" d="M482,224.3c1.1,3.2,4.6,5,7.8,3.9l24.5-8.5c0,0,0,0,0.1,0c3.2-1.1,4.9-4.6,3.8-7.8s-4.6-4.9-7.8-3.8l-24.5,8.5
		C482.6,217.7,480.9,221.1,482,224.3z"/>
	<path class="st1" d="M394.3,164.8v-0.6c0.1-7.4-2-14.8-5.9-21.1c-3.5-5.7-8.6-10.3-14.6-13.2c-12.2-5.4-26.4-3.1-36.2,6
		c-4.6-3.9-10-6.6-15.8-8.1l0,0c-2.8-0.5-5.7-0.6-8.6-0.4c-19.3,1.4-33.8,18.1-32.4,37.4c1.7,31,26.1,45,44.4,55.6l7.5,4.4
		c3.1,2,7,1.9,10-0.2l7-4.1C368,209.8,392.4,195.7,394.3,164.8z M337.6,213.2c-17.6-10.6-43-22.1-44.5-49.2c-0.9-8,2.5-15.8,9-20.5
		c9.9-7.2,23.9-5.1,31.1,4.9l0,0c0,0,0,0,0,0c2.4,2.4,6.3,2.4,8.7,0c3.8-4.2,8.8-7.2,14.3-8.7c8.7-1.9,17.5,2.1,21.8,9.9
		c2.7,4.3,4.1,9.3,4.1,14.3v0.1C380.2,191.2,355.3,202.5,337.6,213.2z"/>
	<path class="st1" d="M318.5,162.4C318.6,162.4,318.6,162.3,318.5,162.4c2.6-2.3,2.9-6.2,0.6-8.7c-2.2-2.6-6.1-2.8-8.7-0.6h0
		c-6.6,7.2-6.4,18.2,0.3,25.2c0,0,0,0,0,0c2,2.8,5.8,3.4,8.6,1.5c2.8-2,3.4-5.8,1.5-8.6C319.6,169.5,316.6,164.1,318.5,162.4z"/>
	<path class="st1" d="M157.5,219.7l24.5,8.5c3.2,1.1,6.7-0.6,7.8-3.8c1.1-3.2-0.6-6.7-3.8-7.8l-24.5-8.5c-3.2-1.1-6.6,0.6-7.8,3.8
		C152.6,215.1,154.3,218.6,157.5,219.7z"/>
	<path class="st1" d="M327.6,243.8L217,214.2c-3-0.8-6.1,0.7-7.3,3.6l-9.3,21.6c-1.4,3.1,0,6.7,3.1,8.1c3.1,1.4,6.7,0,8.1-3.1
		l7.4-16.9l100.2,26.8c-2.5,20.5-4.1,41.9-7,62c-17.1-20.8-56.3-16.1-67.2-14.3c-14.3-13.1-34.7-17.5-53.1-11.3
		c3-7.9,6.3-15.9,9.8-23.9c1.3-3.1-0.1-6.7-3.2-8.1c-3.1-1.4-6.7,0-8.1,3.2c-9.9,20.8-17.1,42.8-21.4,65.4
		c-4,21.5,0.7,43.7,13.1,61.7c5.8,8.6,13.1,16.1,21.6,22.2l-24,89.4c-14.1-1.1-28.1,3.4-39,12.3c-1,0.8-1.6,1.9-2,3.1
		c-0.9,3.3,1.1,6.7,4.3,7.6l90.7,24.3v0c1.2,0.3,2.5,0.3,3.7-0.2c3.2-1.1,4.8-4.7,3.7-7.8c-5-13.3-14.8-24.1-27.6-30.2l23.6-88.2
		c12.9-0.6,25.6-4.2,36.9-10.5c43.7-22.7,49.2-75.9,54.7-130c1-10.1,2.1-20.3,3.4-30.1C332.7,247.8,330.7,244.6,327.6,243.8z
		 M200.3,511.3c-0.8,3,0.7,6.1,3.5,7.3c7.2,3.2,13.6,7.8,18.9,13.6l-62.3-16.7c7.6-2.4,15.5-3.2,23.4-2.3c3,0.3,5.8-1.8,6.5-4.7
		l24.4-91.2c3.2,1.3,6.5,2.4,9.9,3.1L200.3,511.3z M268.3,400.1c-32,16.6-55.9,10.5-76.2-18.2c-10.5-15.5-14.5-34.5-10.9-52.9
		c1.2-7.9,3-15.7,5.5-23.4c30.2-12.8,46.1,1.4,62.4,16.1v0c15.2,13.7,30.8,27.7,56.7,25.8C301.3,369.6,287.7,388.7,268.3,400.1z
		 M257.6,312.9c17.1-1.4,45.4-0.1,49.8,22.2C285.1,337.4,271.1,325,257.6,312.9z"/>
	<path class="st1" d="M534.4,513c-10.9-9-24.9-13.4-39-12.3l-24-89.4c6.6-4.7,12.5-10.4,17.5-16.8c2.1-2.7,1.7-6.5-1-8.6
		c-2.7-2.1-6.5-1.7-8.7,1c-5,6.5-11.1,12.1-18.1,16.3c-5.9,3.6-12.5,5.7-19.4,6.1c-12.3,0.2-24.4-2.9-35.1-9
		c-22.9-11.9-33.8-34.9-40-62.5c31.1-23,50.5-13.7,70-4.4c17.2,11.2,38.5,14.2,58.1,8.2v0c0.3,8.7-1.1,17.5-4.1,25.7
		c-1.2,3.2,0.4,6.7,3.6,7.9c3.2,1.2,6.7-0.4,7.9-3.6c14.3-38.4-5.1-81.6-24.7-125.5c-4.2-9.2-8.3-18.5-12.3-28.1
		c-1.2-2.9-4.3-4.4-7.3-3.6l-110.6,29.6c-3.1,0.8-5.1,4-4.5,7.1c1.3,9.8,2.3,20,3.4,30.1c5.6,54.1,11,107.3,54.7,130
		c11.3,6.3,23.9,9.9,36.9,10.5l23.6,88.2c-12.8,6.1-22.6,17-27.6,30.2c-0.4,1.2-0.5,2.4-0.1,3.6c0.9,3.3,4.2,5.2,7.5,4.4v0
		l90.7-24.3c1.2-0.3,2.3-1,3.1-1.9C537.4,519.1,537,515.2,534.4,513z M442.1,322.2c-1.2-0.6-2.4-1.1-3.6-1.7
		c17.7-7.9,38.5-4.2,52.4,9.3C474.3,334.3,456.6,331.6,442.1,322.2z M355.9,254.3L456,227.5c13.3,27.7,24.9,56.2,34.5,85.4
		c-25.5-17.5-58.9-3.7-68.2,0.8l0,0c-19.9-6.7-41.9-2.6-58.1,10.6C360.4,302.1,358.7,277.4,355.9,254.3z M452.4,532.2
		c5.3-5.8,11.7-10.4,18.9-13.6c2.8-1.2,4.3-4.3,3.5-7.3l-24.4-91c3.4-0.7,6.7-1.7,9.9-3.1l24.4,91.2c0.7,3,3.4,5,6.5,4.7v0
		c7.9-0.9,15.9-0.1,23.4,2.3L452.4,532.2z"/>
</g>
</svg>
