<?xml version="1.0" encoding="utf-8"?>
<!-- Generator: Adobe Illustrator 26.1.0, SVG Export Plug-In . SVG Version: 6.00 Build 0)  -->
<svg version="1.1" id="Capa_1" xmlns="http://www.w3.org/2000/svg" xmlns:xlink="http://www.w3.org/1999/xlink" x="0px" y="0px"
	 viewBox="0 0 675.1 675.1" style="enable-background:new 0 0 675.1 675.1;" xml:space="preserve">
<style type="text/css">
	.st0{fill:#554E94;}
	.st1{fill:#F2F2F2;}
</style>
<circle class="st0" cx="337.6" cy="337.6" r="337.6"/>
<path class="st1" d="M582,347.3l0.2-0.1l-0.9-2.9l0,0c-0.3-0.9-0.8-1.9-1.3-2.8c3.5-4.6,4.4-11.1,2.3-16.7l0,0l-0.8-1.7
	c-0.1-0.2-0.3-0.5-0.3-0.6l-0.4-0.8l0,0c-0.6-1-1.3-1.9-2-2.7c2.4-5.3,2-11.7-1.2-16.7l0.2-0.1l-2-2.4c-0.9-1-1.9-1.9-2.9-2.6
	c1.3-5.6-0.7-12-4.8-16.2l0.3-0.2l-3.2-2.2H565c-0.8-0.6-1.8-1-2.7-1.4c0.1-5.7-3.1-11.6-8.2-14.8l0.1-0.1l-3.3-1.7l-0.1,0.1
	c-0.9-0.3-1.9-0.7-3-0.8c-1.3-5.7-5.2-10.3-10.7-12.6l0.3-0.3l-2.3-0.4c-0.1,0-0.3-0.1-0.3-0.1l-1-0.3l-0.1,0.2
	c-1.1-0.2-2.2-0.3-3.2-0.2c-2.3-5.6-7.3-9.7-12.8-10.6l0.1-0.2l-3.4-0.3l-0.1,0.1c-1.1-0.1-2.2,0.1-3.2,0.3c-2.9-5-9.5-7.7-15.2-7.8
	l0.2-0.5l-2.4,0.5c-0.1,0-0.3,0.1-0.3,0.1l-1.2,0.1v0.3c-1.1,0.3-2.1,0.7-3,1.2c-3.4-3.4-11.2-5.4-16.7-3.8v-0.2l-2,1
	c-0.1,0-0.3,0.2-0.4,0.2l-0.9,0.3v0.1c-0.9,0.4-1.9,1-2.9,1.8c-4.6-2.3-11.6-2.7-16.7,0.3v-0.2l-3,2.4v0.1c-0.8,0.7-1.5,1.4-2.2,2.3
	c-5.1-1.6-11.8-0.1-16.3,3.6l-0.2-0.3l-1.4,1.7c-0.1,0.2-0.3,0.4-0.3,0.4c-0.8,1.1-1.6,2.2-2.2,3.4c-5.7-0.7-11.1,1.4-15,5.7
	l-0.2-0.3l-2.2,3.3l0.1,0.1c-0.5,0.8-0.9,1.7-1.2,2.5c-5.7,0.1-10.8,2.9-13.9,7.2l-0.2-0.3l-1.6,3.4l0,0c-0.4,0.9-0.8,1.9-1,2.9
	c-5.3,0.4-10.4,3.6-13.3,8.4l-0.1-0.1l-1.4,3.2l0,0c-0.3,0.9-0.6,1.9-0.8,2.8c-5.3,0.9-10.1,4.4-12.6,9.1l-0.2-0.1l-1.2,3.4l0,0
	c-0.3,0.9-0.5,1.9-0.6,2.9c-5.1,1.1-9.9,4.9-12.1,10l-0.1-0.1l-0.7,2l-0.3,1.3l0,0c-0.2,0.8-0.3,1.8-0.3,2.7
	c-3.1,0.8-5.8,2.4-7.9,4.7c-1.2-3.3-3.3-6.2-6.1-8.2l0.2-0.1l-2-1.1c-1.3-0.8-2.7-1.3-4-1.6c-0.3-5.3-3.4-10.4-7.8-13.2l0.2-0.2
	l-3.3-1.6l-0.1,0.1c-0.8-0.3-1.8-0.6-2.6-0.8c-0.5-5.1-4-10.4-8.5-13l0.2-0.2l-2.9-1.1c-1.1-0.4-2.3-0.8-3.5-0.9
	c-0.8-5.3-5-10.5-10.1-12.7l0.1-0.2l-3-0.8l0,0c-1-0.3-2-0.4-3-0.5c-1.4-5.1-5.9-9.8-11.2-11.6l0.1-0.2l-3.5-0.7l-0.1,0.1
	c-1-0.1-2-0.2-3-0.1c-2.1-5.1-7.1-8.9-12.7-10.1l0.1-0.3l-3.5-0.2l-0.1,0.1c-1.1,0-2.2,0.2-3.3,0.3c-3-4.8-8.4-7.8-14.4-8v-0.2
	l-3.5,0.3v0.1c-1,0.2-2,0.5-3,0.9c-4-4.4-9.6-6.3-15.8-5.4v-0.2l-2.4,0.7c-0.8,0.2-3.1,0.8-4.7,1.8c-5.3-3.2-11.4-3.5-17.1-0.8
	l-0.1-0.3l-2.6,1.9l0,0c-0.8,0.7-1.6,1.3-2.3,2c-5.2-2.1-12.1-1-16.9,2.7V234l-2.5,2.4l0,0c-0.8,0.8-1.3,1.7-1.9,2.6
	c-5.8-0.8-12,1.7-15.8,6.2l-0.1-0.1l-1.8,2.8c-0.1,0.1-0.1,0.2-0.2,0.3l-0.1,0.2l0,0c-0.5,0.9-0.9,1.9-1.2,2.8
	c-5.7,0.4-11.2,4.1-14,9.3l-0.2-0.2l-1.3,3.7l0,0c-0.3,1-0.4,2-0.6,3c-5.3,1.4-10.1,6.3-11.8,11.9l-0.1-0.1l-0.7,3.5l0.1,0.1
	c-0.1,1-0.1,2.1,0.1,3.3c-5.3,2.9-8.8,8.3-9.2,14.4h-0.2l0.2,3.1l0,0c0.1,1.2,0.3,2.2,0.6,3.1c-4.4,3.6-6.8,9.8-6.2,15.5h-0.2l0.5,2
	c0.1,0.2,0.2,0.6,0.2,0.6c0.3,1.3,0.8,2.7,1.5,3.9c-3.6,4.3-4.9,10.9-3.1,16.5h-0.3l1.6,3.2h0.1c0.6,1,1.2,1.9,1.9,2.7
	c-2.7,4.9-2.5,11.7,0.3,16.8h-0.1l1.3,1.9c0.1,0.2,0.3,0.3,0.3,0.4L98,370c0.8,1,1.7,1.9,2.8,2.8c-1.6,5.7,0,12.1,4,16.5l-0.1,0.1
	l2.5,2.1l0,0c0.9,0.7,1.9,1.3,2.8,1.8c-0.3,5.8,2.5,11.6,7.3,15.2l-0.3,0.2l3.2,1.7l0.1-0.1c1,0.4,2,0.8,3,1
	c0.8,5.7,4.8,10.8,10.1,13.2l-0.2,0.2l3.4,0.9l0,0c1.2,0.3,2.3,0.4,3.3,0.5c1.9,5.3,7,9.7,12.6,11.2l-0.1,0.2l3.4,0.3v-0.1
	c1,0,2.1-0.1,3.1-0.3c3.1,5.2,8.4,8.4,14.5,8.6l-0.1,0.2l3.7-0.3v-0.1c1.2-0.2,2.2-0.4,3.2-0.8c3.6,3.5,7.9,5.2,12.5,5.2
	c1.4,0,2.8-0.2,4.2-0.5v0.2l2.7-1.1c1.2-0.5,2.4-1.2,3.3-1.9c5.2,3.5,12,3,17,0.7l0.1,0.4l3-2.2v-0.1c0.8-0.8,1.6-1.5,2.4-2.4
	c5.7,1.9,11.6,0.8,16.3-2.9l0.1,0.2l2.5-2.5v-0.1c0.8-0.8,1.4-1.7,1.9-2.5c5.4,0.8,11.7-1.4,15.3-5.3l0.1,0.2l2.1-3v-0.1
	c0.5-0.8,1-1.8,1.3-2.6c5.3,0.3,11-2.5,14.4-7.1l0.1,0.1l1.8-3l0,0c0.4-0.8,0.8-1.9,1-2.9c5.4-0.4,10.6-3.5,13.4-8.1l0.1,0.1
	l1.5-3.3l0,0c0.3-0.9,0.6-1.9,0.8-2.7c5.1-0.7,10-4.1,12.6-8.8l0.3,0.3l1.3-3.7l0,0c0.3-0.9,0.5-1.9,0.6-2.9
	c5.3-1.1,9.9-4.7,12.2-9.7l0.1,0.1l1.2-3.6l0,0c0.2-0.8,0.3-1.7,0.4-2.5c5.1-1.3,9.6-5.2,11.6-10.3c0.6,0.3,1.1,0.4,1.7,0.6
	c0.3,5.4,3.2,10.5,7.8,13.6l-0.1,0.1l3,1.5v-0.1c0.8,0.3,1.7,0.6,2.5,0.8c0.4,5.6,3.5,10.5,8.3,13.4l-0.1,0.1l3,1.3l0,0
	c0.9,0.3,1.8,0.6,2.7,0.8c0.8,5.4,4.1,10.3,8.9,12.9l-0.1,0.1l3.3,1.3l0,0c1,0.3,1.9,0.5,2.9,0.7c1.1,5.2,4.9,10,9.8,12.1l-0.3,0.3
	l2.4,0.7c0.1,0,0.3,0.1,0.5,0.2l1.1,0.3l0.1-0.1c1,0.3,1.9,0.3,2.9,0.4c1.8,5.3,6.2,9.7,11.6,11.2l-0.2,0.3l3.5,0.5l0,0
	c1,0.1,2,0.2,3,0.1c2.5,5.1,7.7,8.8,13.2,9.6l-0.1,0.2h2.8c0.1,0,0.1,0,0.1,0c1.3,0,2.6-0.2,3.9-0.4c3,4.4,8.9,7.4,14.3,7.4
	c0.1,0,0.1,0,0.2,0l-0.1,0.2l3.8-0.5v-0.1c1-0.3,2-0.5,3-0.9c3.8,4,11.4,6.2,17,4.7v0.3l3.4-1.6v-0.1c1-0.5,1.9-1.1,2.7-1.7
	c4.6,2.8,11.6,2.8,16.7,0.3l0,0l0.3-0.2c0.4-0.3,0.8-0.5,1.3-0.8l0.3-0.2c0.2-0.1,0.4-0.3,0.6-0.4l0.8-0.7l0,0
	c0.8-0.7,1.6-1.4,2.3-2.3c5.5,1.8,12,0.3,16.4-3.4l0.1,0.2l1.5-1.6c0.1-0.1,0.4-0.4,0.4-0.5c0.9-1.1,1.8-2.2,2.4-3.5
	c5.7,0.5,11.6-2.2,15.3-6.8l0.3,0.4l1.1-2.3c0-0.1,0.2-0.3,0.2-0.3l0.5-0.8L541,424c0.5-1,0.8-2,1.1-3c5.7-0.7,11.2-4.9,13.7-10.3
	l0.1,0.1l0.9-2.7c0.3-1.2,0.6-2.4,0.6-3.7c5.7-1.9,9.9-6.9,11.2-12.7l0.2,0.1l0.3-2.7c0.1-1.3,0.1-2.6-0.1-3.9c5-3,8.3-8.7,8.4-14.4
	l0.2,0.1l-0.2-2.2l0.2-0.7l-0.3-0.3c-0.2-1.3-0.4-2.4-0.8-3.5C580.8,360,583.1,353.3,582,347.3z M121.2,273.1
	c0.3,2.4,0.8,5.1,1.3,7.6c1.7,7.6,3.2,14.8-3.2,19c-0.3-0.6-0.5-1.3-0.8-1.9c-2-4.9-4.1-9.9-4.2-14.8
	C114.7,278.7,117.5,274.8,121.2,273.1z M557,397.9c-0.3-2.4-1-5-1.7-7.4c-2-7.6-4-14.8,2.3-19.2c0.3,0.8,0.7,1.5,1.1,2.2
	c2.4,4.8,4.3,9,4.7,14.3C563.3,391.9,560.7,396,557,397.9z M306.8,365.9c0.1,1.3,0.2,2.8,0.3,4.2c0.3,4.6,0.8,9.4,0,13.5
	c-1.3,3.9-4.4,6.9-8.2,7.9c0-1.5,0-3.2-0.1-4.9C298.5,377.6,298.2,368.4,306.8,365.9z M308.1,354l-0.3-0.2l-1,3.5l0,0
	c-0.2,0.9-0.3,1.8-0.4,2.7c-5,1.1-9.2,4.3-11.5,8.6l-0.2-0.2l-1.3,4h0.1c-0.2,0.8-0.3,1.5-0.4,2.2c-4.9,0.8-9.4,3.8-12,8.1l-0.2-0.2
	l-1.3,3.4l0,0c-0.3,0.8-0.5,1.8-0.7,2.6c-5.6,0.6-9.5,2.9-12.4,7.2l-0.1-0.1l-1.7,3.1l0,0c-0.3,0.8-0.6,1.5-0.8,2.3h-0.1
	c-4.7,0-9.6,2.2-12.6,5.7l-0.2-0.3l-1.9,3.1v0.1c-0.4,0.8-0.8,1.5-1.1,2.4c-4.8-0.7-9.2,0.6-13,3.8l-0.2-0.3l-2.4,2.8v0.1
	c-0.5,0.7-1,1.3-1.3,2c-4.6-1.3-10.6-1.1-14.8,2.7l-0.7,0.5c-0.8,0.6-1.5,1.3-2.1,1.9c-4-2.2-8.6-2.7-12.6-1.4V424l-2,0.9
	c-0.2,0.1-0.5,0.3-0.7,0.3l-0.2,0.1c-0.8,0.4-1.6,1-2.4,1.5c-3-3.1-6.8-4.6-11.6-4.6c-0.2,0-0.3,0-0.4,0l0.1-0.3l-2.2,0.4
	c-0.2,0-0.5,0.1-0.5,0.1c-1,0.2-2.1,0.5-3.1,0.9c-3.2-4.6-6.6-6.8-10.9-7.4l0.1-0.2h-3.3c-0.8,0-1.5,0-2.3,0.1
	c-1.5-4.4-5-7.8-9.4-9.5l0.2-0.2l-2.3-0.5c-0.2,0-0.6-0.2-0.7-0.2h-0.3c-0.9-0.2-1.9-0.3-2.9-0.3c-0.8-4.6-3.7-8.8-7.5-11l0,0
	l-0.7-0.3c-0.3-0.2-0.5-0.3-0.8-0.3l-0.3-0.2c-0.2-0.1-0.4-0.3-0.6-0.3l0,0c-0.9-0.4-1.9-0.8-2.9-1c0-4.9-1.6-8.9-4.8-12.1l0.2-0.1
	l-1.7-1.3c-0.1-0.1-0.5-0.3-0.7-0.4h-0.1c-0.8-0.6-1.8-1.1-2.6-1.4c1.1-4.3,0.3-9.3-2.1-13l0.2-0.1l-2.4-2.8h-0.1
	c-0.5-0.5-1.1-1-1.7-1.5c2-4.4,2.3-8.8,0.8-12.8h0.2l-1.1-2.1c-0.1-0.2-0.3-0.5-0.3-0.7l-0.2-0.2c-0.5-0.9-1.1-1.7-1.6-2.4
	c2.9-3.8,4-8.3,3.3-12.7h0.4l-0.8-2.2c0-0.1-0.2-0.3-0.2-0.4l-0.3-1.1h-0.1c-0.3-0.7-0.6-1.3-0.9-1.9c3.5-3,5.6-7.3,5.7-11.8
	l0.3,0.1l-0.4-3.8h-0.1c-0.2-0.8-0.3-1.5-0.6-2.3c3.9-2.2,6.9-6.2,7.9-10.5l0.2,0.1l0.3-3.6h-0.1c0-0.8,0-1.6-0.1-2.4
	c4.8-1.7,8-4.6,9.9-8.9l0.2,0.1l0.8-2.7c0.3-1.1,0.5-2,0.6-3c4.8-0.6,8.8-3,11.5-6.6l0.2,0.2l1.3-2.5c0.3-0.8,0.8-1.7,1-2.6
	c4.3,0.5,9.2-1,12.5-3.8l0.1,0.2l1.4-1.7l1-1l-0.1-0.2c0.5-0.6,0.9-1.3,1.3-1.9c4.6,1.5,9,1.1,13-1l0.1,0.4l1.9-1.7l-0.8-1h0.1
	l1.2,0.7c0.8-0.6,1.5-1.3,2.2-2c3.8,2.1,9.3,3.5,13.9,1.1l1.5-0.5l0,0c0.7-0.3,1.4-0.7,2.1-1c3.5,3.5,7.9,5.3,12.2,5.1v0.1l0.8-0.1
	c0.4,0,0.8-0.1,1.3-0.2h0.3c0.2,0,0.6-0.1,0.6-0.1c1.1-0.2,2.1-0.4,3.2-0.8c3.3,4.7,8.9,7.7,14.3,7.3l0,0c1.1,0,2.2-0.1,3.1-0.3
	c2,4.3,5.9,7.7,10.3,8.9l-0.2,0.3l3.8,0.4v-0.1c0.7,0.1,1.5,0.1,2.4,0.1c1.4,4.6,5.1,8.6,9.4,10.5l-0.2,0.3l3.5,0.8l0,0
	c0.8,0.2,1.6,0.3,2.5,0.3c1,5,4.5,9.5,8.9,11.7l-0.1,0.2l3,0.9c0.8,0.3,1.7,0.4,2.5,0.6c0.6,5,3.5,9.4,7.6,12.2l-0.2,0.2l3.5,1.6
	l0,0c0.8,0.3,1.6,0.6,2.5,0.8c0.3,5.1,3,9.8,7.2,12.7l-0.2,0.2l1.9,1c0.2,0.1,0.5,0.3,0.7,0.3h0.1c1.1,0.5,2.2,0.9,3.3,1.2
	c0.3,4.9,2.5,9.5,6.4,12.6c-0.1,0.3-0.3,0.5-0.3,0.7l-0.2-0.1l-0.6,1.9c-0.4,1.4-0.7,2.9-0.8,4.3C314.6,345.8,310.3,349.4,308.1,354
	z M112.7,356.4c-8.9-5.2-14-10.7-14.9-15.8c-0.5-2.5,0.1-5,1.7-7.4c1.6,1.9,3.5,3.8,5.4,5.6C110.4,344.2,115.7,349.3,112.7,356.4z
	 M107,359.3c6.7,4.2,12.6,7.9,11.2,15.4c-5.3-1.7-15.1-5.7-17.9-12.2c-1-2.4-1-5,0.1-7.7C102.4,356.4,104.7,357.9,107,359.3z
	 M113.4,318c-0.3-0.5-0.7-0.9-1-1.4c-3-4.5-6.2-9.1-7.2-14.1c-0.6-4.1,1.4-8.6,4.8-11c0.8,2.4,1.8,4.8,2.8,7.2
	C115.9,305.9,118.9,312.7,113.4,318z M106.9,318.4c4.6,6.7,8.6,12.5,4.2,18.8c-7.5-6.8-11.6-13.3-11.5-18.5c0.1-2.6,1.1-4.8,3.1-6.9
	C103.9,314.1,105.4,316.2,106.9,318.4z M113.4,378.8c7.4,2.7,13.9,5,14.2,12.5c-0.7-0.1-1.3-0.2-2-0.3c-5.6-0.8-10.3-1.4-15-4.2
	c-3.4-2.4-5.3-7-4.7-11C108.2,377,110.8,377.9,113.4,378.8z M123.4,396.4c7.7,1,15,1.9,16.9,9.2c-0.8,0.1-1.8,0.1-2.7,0.2
	c-7.9,0.6-16.1,1.2-20.2-5.7c-0.8-1.5-1.4-3.2-1.6-5C118.2,395.7,120.8,396,123.4,396.4z M132.1,416.3c-1.3-1.4-2.2-3-2.6-4.5
	c2.2,0.1,4.7-0.1,7.3-0.3c8.3-0.6,16-1.2,19.1,5.7c-1.2,0.3-2.4,0.6-3.7,0.9C144.7,420.1,137.1,422,132.1,416.3L132.1,416.3z
	 M172.4,432.5c6.9-3.4,13.5-6.6,18.7-1.9c-0.3,0.3-0.7,0.6-1,0.8c-6.2,5.2-13.2,11-21,7.7c-1.5-0.8-3-2-4-3.5
	C167.6,434.9,170.1,433.7,172.4,432.5z M192.6,436.8c5.7-5.1,10.8-9.4,17.5-6.3c-3.4,4.8-6.9,9.8-12.1,12.9c-4,2-8.7,0.9-12-1.3
	C188.4,440.5,190.5,438.6,192.6,436.8z M207.9,442.7c1.9-2,3.6-4.5,5.2-6.8c4.3-6.2,8.1-11.7,15.6-10c-2.4,5.4-4.8,11-8.8,15.3
	C216.9,443.3,211.6,444.3,207.9,442.7z M232.4,431.4c3.2-7.3,6.3-14.3,13.9-13.7c-0.3,1.2-0.7,2.4-1,3.8c-1.9,7.2-3.7,14.6-11,16.6
	l0,0c-1.6,0.4-3.4,0.5-5.1,0.1C230.4,436.1,231.4,433.7,232.4,431.4z M267.8,413.1c1.1-8.6,2.3-17.5,10.7-18.6
	c-0.3,7.4-0.6,17.5-5.5,21.9c-1.6,1.4-3.6,2.3-6.1,2.4C267.3,416.9,267.6,415,267.8,413.1z M292.3,398.3c-1.3,3.8-4.8,6.7-8.8,7.4
	c0.2-1.6,0.3-3.4,0.3-5.1c0.3-8.9,0.8-18,9.2-19.9c0,1.4,0.1,2.9,0.1,4.4C293.2,389.6,293.4,394.3,292.3,398.3z M217.1,234.4
	c-2.3,1.3-4.5,3-6.6,4.7c-3,2.4-6.2,4.8-9.6,6.2c-2.1,1.2-5.4,0.7-8-0.5c0.6-0.8,1.2-1.5,1.7-2.3c3.1-4.1,6.2-8.4,10.9-10.1
	C209.4,231,214,231.9,217.1,234.4z M328.5,321c-9.2-0.8-19.5-1.5-20.7-10.6c1.4,0.1,3,0.3,4.7,0.3c4.4,0.3,9.4,0.5,12.8,1.7
	c3.6,1.6,6.3,5.1,6.9,8.9C330.9,321.1,329.7,321.1,328.5,321z M300.9,289.8c-0.2,0-0.3,0-0.6,0c-9,0.1-18.1,0-20.4-8.4
	c1.1-0.1,2.3-0.2,3.5-0.3c4.8-0.3,10.3-0.7,14.2,0.3c3.9,1.3,6.8,4.6,7.8,8.4C303.9,289.8,302.4,289.8,300.9,289.8z M284.8,275.3
	c-8.8,0.7-17.1,1.3-20.2-6.6c0.6-0.1,1.2-0.2,1.9-0.3c5-0.8,11.2-1.9,15.7-1.3c4,1,7.3,4.1,8.4,7.8
	C288.7,275,286.8,275.2,284.8,275.3z M211.4,245.5l0.7-0.5c4.4-3.3,9.4-7,14.4-8.6c4.3-0.6,8.7,1,11.1,4c-2.2,0.8-4.4,2-6.5,3.1
	C224,247.3,217.1,250.8,211.4,245.5z M173.8,236.5c-1.3,2.1-2.4,4.6-3.5,7c-3.2,7-6.2,13.7-13.7,13.3c0.1-0.5,0.3-1.1,0.3-1.6
	c1.2-5.5,2.4-10.6,5.5-15C165.1,237.1,169.7,235.6,173.8,236.5z M153.7,244.7c-0.8,2.4-1.4,5.1-2,7.8c-1.6,7.8-3,14.6-10.5,15.8
	c-0.3-5.7,0.1-16.3,5.2-21.1c1.9-1.7,4.1-2.5,6.9-2.5C153.5,244.7,153.6,244.7,153.7,244.7z M135.9,257.1c-0.3,2.5-0.3,5.2-0.3,7.9
	c0.1,7.7,0.2,15-6.9,17.8c-0.1-0.5-0.2-1-0.3-1.5c-1-5.2-2.2-11.1-1.3-16C128.3,261.4,132,258.1,135.9,257.1z M319.8,350.4
	c0.2,1.7,0.4,3.5,0.6,5.1c0.6,4.3,1.2,8.7,0.6,12.6c-0.9,4-4,7.3-7.8,8.4c-0.1-1.4-0.2-3-0.3-4.5
	C312.1,362.8,311.3,353.4,319.8,350.4z M333.8,327.3c0.2,0,0.4,0.1,0.9,0.1l0.7,0.3l0.1-0.1c0.1,0,0.2,0.1,0.3,0.1
	c0.5,0.2,0.7,0.3,0.9,0.3h0.5c4,1.3,7.1,5.1,7.7,9.3c-1.5-0.2-3.2-0.3-4.9-0.5c-3.5-0.3-7-0.7-10-1.3l0.2-0.2l-2.4-0.6
	c-3.8-0.9-6.6-5.1-7.2-8.9C324.7,326.3,330.7,327,333.8,327.3z M565.4,334.6c4,3.6,8.2,7.4,10.4,11.9c1.4,3.9,0.6,8.7-2,11.8
	c-1.3-2-2.8-4.1-4.3-6.1c-4.8-6.3-9.4-12.3-5.3-18.8C564.4,333.8,564.8,334.2,565.4,334.6z M576,336.8c-1.7-1.9-3.7-3.6-5.7-5.3
	c-5.8-5.1-11.4-10-8.8-17.1c5.1,2.5,14.1,8.1,15.8,14.9C577.8,331.8,577.4,334.3,576,336.8z M573.9,315.2c-2.1-1.5-4.5-2.9-6.8-4.2
	c-6.7-3.7-13-7.3-12.1-14.7l0.8,0.3c5.2,1.6,11.1,3.5,15.1,6.9C574,306.5,575.1,311.4,573.9,315.2z M544.8,280.2
	c0.5,0.1,1,0.1,1.5,0.2c5.4,0.5,11,1,15.7,3.5c1.9,1.3,3.5,3.2,4.5,5.7c0.6,1.6,0.8,3.4,0.8,5.1c-2.4-1-5-1.9-7.5-2.6
	C552.4,289.8,545.4,287.7,544.8,280.2z M516.9,249.1c-7.6,2.4-14.2,4.4-19-1.4c6.7-4,16.6-9.4,23-4.6c1.4,1.1,2.6,2.4,3.5,4
	C521.9,247.6,519.4,248.4,516.9,249.1z M497.6,241.4c-6.6,3.9-12.4,7.3-18.3,2.8c5.1-5.5,12.4-10.8,18.7-10.4
	c2.7,0.2,5.1,1.4,7.1,3.7C502.5,238.5,500.1,239.9,497.6,241.4z M477.3,238.3c-5.5,5.4-10.3,10.1-16.9,7.2c0.4-0.7,0.9-1.3,1.3-2.1
	c4.4-6.7,8.9-13.7,17-12.7c1.6,0.2,3.4,0.9,4.9,1.9C481.5,234.3,479.4,236.4,477.3,238.3z M441,238.7c-1,2.1-1.9,4.5-2.8,6.7
	c-2.8,7.4-5.4,14.5-13.4,14.5c-0.1,0-0.2,0-0.2,0c0.2-0.7,0.3-1.3,0.4-2c1.2-5.3,2.4-10.3,5-14.8C432.6,239.9,437,238.2,441,238.7z
	 M421.7,247.9c-0.6,1.9-1,4-1.5,6.2c-1.9,8.5-3.8,16.7-12,17.1c0.7-7.5,1.8-17.3,7-21.3c1.7-1.3,3.6-1.9,6.1-1.9
	C421.4,247.9,421.6,247.9,421.7,247.9z M404,259.6c-0.3,1.8-0.5,3.7-0.7,5.7c-0.9,8.9-1.8,17.3-10.3,18.8c0-1.1,0.1-2.2,0.1-3.4
	c0.1-4.9,0.3-10.4,1.6-14.2C396.2,262.9,399.9,260.2,404,259.6z M365.2,313c-0.1-1.4-0.3-3-0.4-4.4c-0.4-4.6-0.9-9.3-0.2-13.2
	c1-3.8,4.2-6.9,8.1-8.1c0,1.5,0.1,3.1,0.2,4.8C373.2,301.2,373.7,310.5,365.2,313z M342,323.8l-0.7,1.3l0.2-1.5l0,0l-0.8-0.4l0,0
	c-0.3-0.1-0.4-0.2-0.7-0.3c1.3-2,3.2-3.6,5.5-4.5c0.2,1.3,0.3,2.6,0.5,4c0.2,1.6,0.4,3.4,0.6,5c-0.8-0.8-1.6-1.7-2.5-2.4l0.3-0.2
	L342,323.8z M333.4,341.8l12.9,1.5c0.7,0.1,1.6,0.2,2.3,0.4c0.4,0.1,0.8,0.2,1.2,0.3l0.3,0.9v-0.8c4,1.3,7,4.9,7.6,9.1
	c-1.5-0.2-3.2-0.3-4.9-0.4c-4.6-0.3-9.3-0.8-12.6-1.9c-0.3-0.2-0.5-0.3-0.9-0.5C336,348.6,333.9,345.4,333.4,341.8z M448.7,433.2
	c7-4,13.7-7.9,19.8-2.8c-4.6,4-12.6,10.5-19.6,9.8c-2.4-0.3-4.6-1.4-6.5-3.6C444.6,435.7,446.7,434.5,448.7,433.2z M487.1,429.8
	c-0.4,0.6-0.8,1.3-1.3,1.9c-3,4.3-6.1,8.8-10.2,11.4c-3.7,2.1-8.9,1.1-12.2-1.3c2.3-1.5,4.5-3.5,6.6-5.3
	C475.5,431.5,480.7,426.8,487.1,429.8z M489.8,435.8c4.2-6.4,8.3-12.6,15.8-11c-0.2,0.4-0.3,0.8-0.5,1.3c-2,5.1-4.1,10.3-7.9,14.1
	c-3.4,2.7-7.8,3.5-11.8,1.9C486.9,440.1,488.4,437.9,489.8,435.8z M509.7,429.8c2.8-7.1,5.4-13.8,13-13.8l0,0
	c-0.7,5.6-2.7,16-8.7,19.9c-2.2,1.4-4.6,1.9-7.6,1.3C507.7,434.9,508.7,432.3,509.7,429.8z M526.1,427.8c0.7-2.4,1.1-5.1,1.5-7.8
	c1.2-7.6,2.3-14.8,9.7-16.4c0,0.5,0.1,1.1,0.1,1.6c0.3,5.4,0.4,11-1.3,15.9C534.2,424.9,530.1,427.6,526.1,427.8z M537.5,394.1
	l-0.4,1.4l0.1,0.1c-0.2,0.8-0.3,1.5-0.3,2.3c-4.8,0.8-8.7,3.4-11,7.2l-0.1-0.1l-0.9,1.8c-0.1,0.2-0.3,0.6-0.3,0.8v0.1
	c-0.4,0.9-0.8,1.9-1,2.8c-5.1-0.1-8.9,1.3-12.3,4.6l-0.2-0.3l-2.1,3l0,0c-0.3,0.6-0.8,1.2-1.1,1.9c-4.3-1.2-9.2-0.5-13,1.7v-0.1
	l-3,2.2v0.2c-0.6,0.5-1.1,1.1-1.6,1.7c-4.6-2.3-8.7-2.6-13.2-1v-0.3l-2.3,1.3c-0.9,0.4-1.6,0.9-2.1,1.5c-3.1-2.9-7.1-4.4-11.3-4.4
	c-0.3,0-0.7,0-1,0l0.1-0.3l-3.6,0.8v0.1c-0.8,0.3-1.6,0.5-2.4,0.8c-3.3-4.5-7.7-6.7-13.7-6.9l-0.9,0.1c-1,0.1-2,0.3-3,0.5
	c-2.3-4.4-5.7-7.3-10.5-8.5l0.2-0.3l-3.1-0.3c-1-0.1-2.1-0.1-3.2,0c-1.8-5-4.8-8.1-9.5-10.1l0.1-0.2l-1.9-0.6
	c-0.2-0.1-0.6-0.2-0.8-0.2h-0.3c-1-0.3-2.1-0.3-3-0.4c-0.9-4-4.3-8.9-8.5-11.2l0.2-0.2l-3.5-1.2h-0.1c-0.8-0.3-1.8-0.4-2.7-0.6
	c-0.8-5.1-3.5-9.4-7.8-12l0.1-0.1l-3.5-1.7H379c-0.8-0.3-1.7-0.5-2.5-0.8c-0.4-5.1-3.2-9.8-7.3-12.6l0.1-0.1l-1.9-1
	c-0.2-0.1-0.5-0.3-0.7-0.3l-0.3-0.1c-1-0.5-2.1-0.8-3.1-1.1c-0.3-5.1-3-10-7-13l0.2-0.2l-3.4-1.7h-0.1c-0.4-0.2-0.8-0.3-1.2-0.5
	l0.3-1.3h-0.1c0.2-0.9,0.3-1.9,0.3-2.9c5.9-1.6,10.6-6.3,12.2-12.4l0.2-1.2l0,0c0.1-0.7,0.2-1.3,0.3-1.9c4.9-1.1,9.2-4.5,11.5-8.9
	l0.1,0.1l1.3-3.5h-0.1c0.2-0.8,0.3-1.6,0.4-2.4c5.3-0.9,9.4-3.8,12-8.4l0.2,0.1l1.3-3l0,0c0.3-0.8,0.5-1.7,0.7-2.5
	c4.7-0.5,9.4-3.3,12.1-7.2l0.2,0.3l1.6-3.4l0,0c0.3-0.8,0.7-1.8,0.8-2.6l0,0c4.7,0,9.4-2.3,12.6-5.9l0.1,0.2l2-3.1v-0.1
	c0.4-0.8,0.8-1.6,1.1-2.4c5,0.3,9.7-1.2,12.9-4.3l0.2,0.3l2.8-3.9h-0.1c0.3-0.4,0.5-0.8,0.8-1.3c4.4,1.1,9.1,0.4,13-2l0.1,0.4l3-2.8
	l0,0c0.5-0.6,1-1.2,1.5-1.8c4.3,2.1,8.1,2.4,12.6,0.8v0.3l2.1-1.2c0.1-0.1,0.3-0.2,0.4-0.3l0.8-0.4v-0.1c0.7-0.4,1.3-0.8,1.9-1.3
	c5.1,4,11.6,4.9,17.6,2.3c2.4,3.4,6.7,6,10.9,6.7l-0.2,0.3l4-0.2v-0.1c0.8-0.1,1.5-0.2,2.3-0.3c2.3,4.9,5.1,7.7,9.2,9l0,0l0.8,0.2
	c0.5,0.2,1,0.3,1.5,0.3l0.3,0.1c0.2,0.1,0.7,0.2,0.7,0.1c1.1,0.3,2.1,0.3,3.3,0.3c1.2,4.6,4,8.3,7.9,10.5L533,278l3.5,1.3l0.1-0.1
	c0.8,0.3,1.5,0.4,2.2,0.5c0.2,4.8,2.1,8.9,5.5,11.9l-0.2,0.1l1.9,1.3c0.2,0.1,0.3,0.3,0.4,0.3h0.1c0.9,0.6,1.8,1,2.6,1.4
	c-0.8,4.8,0.2,9.2,3,12.9l-0.2,0.1l1.4,1.5c0.2,0.2,0.3,0.3,0.3,0.3l0.1,0.1c0.7,0.7,1.5,1.3,2.4,1.9c-1.9,4.3-1.9,8.9,0,13.1h-0.3
	l2,3.2h0.1c0.4,0.6,0.9,1.2,1.4,1.8c-2.8,4-3.7,8.7-2.6,13.2l0,0l0.1,0.2c0.1,0.4,0.3,0.9,0.4,1.3l0.1,0.3c0.1,0.2,0.2,0.4,0.2,0.6
	v0.1c0.3,0.9,0.8,1.9,1.3,2.8c-3.5,3.5-5.2,7.5-5.1,12.1l-0.3-0.1l0.5,2.4l0.2,1.2l0.1,0.1c0.2,0.8,0.4,1.7,0.7,2.4
	c-4,2.5-6.8,6.8-7.5,11.3h-0.2l-0.1,3.3l0,0c0,0.8,0.1,1.4,0.3,2.3C542.7,384.6,538.6,389.2,537.5,394.1z M543,406.7
	c-0.5-7.8-0.9-15.1,6-18.3c0.2,0.7,0.3,1.3,0.5,1.9c1.3,5.1,2.7,10.4,1.9,15.4c-0.9,4-4.3,7.5-8.3,8.6
	C543.3,412,543.2,409.3,543,406.7z M548.7,274.9c-7.8-0.6-15.1-1.2-17.3-8.5c7.4-1.2,16.6-1.6,21.6,2.5c2,1.7,3.1,3.9,3.5,6.8
	C553.9,275.3,551.3,275.1,548.7,274.9z M534.1,260.5c-7.9,1-15.4,2-18.7-5.2c6.9-2,16.4-4.6,22.1-1.2c2,1.2,3.5,3.1,4.3,5.7
	C539.3,259.8,536.7,260.2,534.1,260.5z M457.5,239.8c-4,6.6-7.9,12.7-15.5,11.4c1.7-5,5.7-15.3,12.2-18c2.4-1,4.9-0.9,7.8,0.1
	C460.4,235.2,458.9,237.6,457.5,239.8z M387.7,272.8c-0.1,1.8-0.2,3.5-0.2,5.5c-0.2,9.2-0.4,17.9-8.9,19.8v-0.7
	c-0.3-7.2-0.8-16.9,3.5-21.7C383.5,274.2,385.4,273.2,387.7,272.8z M359.4,320.4v0.4c-1,3.5-3.6,6.4-7,7.8c-0.2-1.5-0.4-3.2-0.6-5
	c-0.6-4.5-1.2-9-0.9-12.6c1-4,4-7.2,7.7-8.4c0.1,1.9,0.3,4,0.5,6.2C359.4,312.8,359.9,316.9,359.4,320.4z M314.8,305.1
	c-11-0.6-19.1-1.6-20.6-9.8c0.6,0,1.3,0,1.9,0c12.1-0.2,21.6,0.8,23,10.1C317.7,305.3,316.2,305.2,314.8,305.1z M267.7,262.4
	c-8.1,1.5-15.7,3-19.7-4.3c5.1-1.9,15.7-5.4,22-2.1c2.1,1.1,3.6,2.9,4.6,5.3C272.4,261.6,270,262,267.7,262.4z M249.9,251.7
	c-7.6,2.5-14.7,5-19.7-1.4c6.7-3.8,15.3-7.4,21.3-5.4c2.4,0.8,4.1,2.4,5.4,4.7C254.6,250.1,252.2,250.9,249.9,251.7z M190.2,238.9
	c-4.6,6.2-8.9,12.1-16.3,10c2.2-5.2,7-14.8,13.8-17c2.4-0.8,4.9-0.5,7.4,0.8C193.4,234.5,191.8,236.7,190.2,238.9z M154,423.6
	c2.8-0.7,5.5-1.3,8.2-1.8l1-0.2c3.7-0.6,7.2,1.1,9.7,4.5c-6.5,3.5-14.8,6.7-20.9,4.5c-2.4-0.9-4.4-2.7-5.7-5.4
	C148.9,424.9,151.4,424.3,154,423.6z M248.9,429.8c0.7-1.9,1.2-4,1.7-6.2c2.1-8.3,4.1-16.2,12.3-16.7c-0.2,1-0.3,2.1-0.4,3.2
	c-0.7,5-1.3,10-3.4,14.1C257.3,427.6,253.1,429.9,248.9,429.8z M325.3,343.1c0.2-0.9,0.4-1.8,0.8-2.6c0.4,0.2,0.9,0.3,1.3,0.4
	c0.2,4.8,2.4,9.3,6.1,12.5c-1.1,3.5-3.5,6.1-6.8,7.3c-0.1-0.9-0.3-2.1-0.4-3.5C325.8,352.9,324.8,344.8,325.3,343.1z M350.3,358.2
	c11.1,0.8,19.2,2.1,20.4,10.5c-0.7,0-1.3-0.1-2-0.1c-12.1-0.4-21.4-1.6-22.5-10.8C347.5,358,348.9,358.1,350.3,358.2z M364,373.9
	c10.9,0.4,18.9,1.4,20.4,9.5h-1.2c-12.2,0.3-22.4-0.3-23.8-9.8C360.8,373.8,362.4,373.9,364,373.9z M378.4,389.1
	c9-0.1,18.2-0.3,20.6,8.1h-0.3c-7.1,0.8-16.9,1.8-21.9-2.4c-1.7-1.4-2.8-3.3-3.3-5.7C374.9,389.2,376.6,389.2,378.4,389.1z
	 M393.8,403.3c8.7-0.8,17.7-1.7,20.7,6.1c-7.2,1.6-16.7,3.6-22.2,0c-1.9-1.3-3.2-3.1-4-5.7C390,403.6,391.9,403.4,393.8,403.3z
	 M411,415.8c8.4-1.8,16.4-3.5,20.4,3.5c-6.4,2.4-15.9,5.8-21.8,3c-2.1-1-3.7-2.8-4.8-5.2C406.8,416.7,408.8,416.2,411,415.8z
	 M422.8,428.2c2-0.6,4.1-1.3,6.4-2.2c7.8-3,15.3-5.7,20.2,0.4c-1,0.5-1.9,1.1-3,1.6c-4.2,2.4-8.6,4.8-13.2,5.5
	C429.4,433.7,425.2,431.7,422.8,428.2z M567.3,378.9c-0.8-2.4-2-4.8-3.2-7.1c-3.6-7.3-6.7-13.6-1.3-19.2c6.6,8,9.5,14.9,8.7,20.1
	C570.9,375.1,569.7,377.1,567.3,378.9z"/>
</svg>
