<?xml version="1.0" encoding="utf-8"?>
<!-- Generator: Adobe Illustrator 26.1.0, SVG Export Plug-In . SVG Version: 6.00 Build 0)  -->
<svg version="1.1" id="Capa_1" xmlns="http://www.w3.org/2000/svg" xmlns:xlink="http://www.w3.org/1999/xlink" x="0px" y="0px"
	 viewBox="0 0 675.1 675.1" style="enable-background:new 0 0 675.1 675.1;" xml:space="preserve">
<style type="text/css">
	.st0{fill:#554E94;}
	.st1{fill:#F2F2F2;}
</style>
<circle class="st0" cx="337.6" cy="337.6" r="337.6"/>
<g>
	<path class="st1" d="M252.3,141.4c-41.1,0-75,33.2-75,74s33.8,73.9,75,73.9c41.1,0,74.9-33.1,74.9-73.9S293.4,141.4,252.3,141.4z
		 M423.5,141.4c-41.1,0-74.9,33.2-74.9,74c0,40.8,33.8,73.9,74.9,73.9s74.9-33.1,74.9-73.9C498.4,174.6,464.6,141.4,423.5,141.4z
		 M252.3,166.7c27.6,0,49.6,21.8,49.6,48.7c0,26.9-21.9,48.5-49.6,48.5c-27.6,0-49.6-21.7-49.6-48.5
		C202.7,188.5,224.7,166.7,252.3,166.7z M423.5,166.7c27.6,0,49.6,21.8,49.6,48.7c0,26.9-21.9,48.5-49.6,48.5
		c-27.6,0-49.6-21.7-49.6-48.5C373.9,188.5,395.9,166.7,423.5,166.7z M252.3,293.5c-32.4,0-61.6,13.4-82.3,34.9
		c-3.8-1.2-7.8-1.8-11.9-1.8h-22.8c-7.2,0-13.1,5.8-13.2,13.1v56.6c0,7.3,5.9,13.2,13.1,13.2c0,0,0,0,0,0h3.8v111.6
		c0,7,5.7,12.7,12.7,12.6h201.1h170.4c7,0,12.7-5.6,12.7-12.6c0,0,0,0,0,0V409.5h3.8c7.3,0,13.2-5.9,13.2-13.1c0,0,0,0,0-0.1v-56.6
		c0-7.3-5.9-13.1-13.2-13.1H517c-4.2,0-8.3,0.6-12.1,1.8c-20.5-21.5-49.5-34.9-81.6-34.9H256.7C255.2,293.5,253.8,293.5,252.3,293.5
		L252.3,293.5z M252.3,318.8c49,0,87.8,38.4,87.8,86.2v103.3h-125v-63.2c0-7-5.7-12.6-12.6-12.6c-7,0-12.7,5.6-12.7,12.6
		c0,0,0,0,0,0v63.2h-25.3V409c19.8-3.1,35.1-20.4,35.1-40.9c0-9.3-3.2-17.9-8.4-24.9C206.9,328.1,228.4,318.8,252.3,318.8z
		 M324.1,318.8h99.1c23.7,0,45,9.3,60.6,24.4c-5.2,6.9-8.3,15.5-8.3,24.8c0,20.6,15.3,37.8,35.1,40.9v99.4h-26.9v-63.2
		c0-7-5.7-12.7-12.7-12.6c0,0,0,0,0,0c-7,0-12.6,5.7-12.6,12.6v63.2h-92.9V405.1C365.5,370.3,349.4,339.3,324.1,318.8z M148.4,352.9
		h9.7c8.6,0,15,6.5,15,15.2c0,8.6-6.5,15.1-15,15.1h-9.7L148.4,352.9z M517,352.9h9.7v30.3H517c-8.6,0-15.1-6.5-15.1-15.1
		C501.9,359.4,508.4,352.9,517,352.9z"/>
</g>
</svg>
