<?xml version="1.0" encoding="utf-8"?>
<!-- Generator: Adobe Illustrator 26.1.0, SVG Export Plug-In . SVG Version: 6.00 Build 0)  -->
<svg version="1.1" id="Capa_1" xmlns="http://www.w3.org/2000/svg" xmlns:xlink="http://www.w3.org/1999/xlink" x="0px" y="0px"
	 viewBox="0 0 675.1 675.1" style="enable-background:new 0 0 675.1 675.1;" xml:space="preserve">
<style type="text/css">
	.st0{fill:#554E94;}
	.st1{fill:#F2F2F2;}
</style>
<circle class="st0" cx="337.6" cy="337.6" r="337.6"/>
<g>
	<path class="st1" d="M337.5,548c-4.9,0-8.9,4-8.9,8.9c0,4.9,4,8.9,8.9,8.9c4.9,0,8.9-4,8.9-8.9C346.4,552,342.5,548,337.5,548z"/>
	<path class="st1" d="M221.6,461.2c0.1,0.2,0.2,0.3,0.2,0.5c0.1,0.3,0.2,0.5,0.4,0.8c0.2,0.2,0.4,0.4,0.6,0.6
		c0.1,0.1,0.2,0.3,0.4,0.4c0,0,0.1,0,0.1,0c0.4,0.2,0.8,0.4,1.2,0.5c0.1,0,0.2,0.1,0.3,0.1c0.5,0.1,1.1,0.1,1.6-0.1l194.1-48
		c0.5-0.1,1-0.4,1.5-0.7c0.1-0.1,0.1-0.2,0.2-0.3c0.3-0.3,0.6-0.6,0.8-1c0,0,0.1-0.1,0.1-0.1c0.1-0.2,0.1-0.4,0.2-0.5
		c0.1-0.3,0.2-0.5,0.2-0.8c0-0.3,0-0.6,0-0.9c0-0.2,0-0.4,0-0.6l-14.6-59.1l45.9,8.1c0.5,0.1,1.1,0.1,1.6-0.1c0.1,0,0.2-0.1,0.3-0.1
		c0.4-0.1,0.8-0.3,1.1-0.6c0,0,0.1,0,0.1-0.1c0.2-0.1,0.2-0.3,0.4-0.4c0.2-0.2,0.4-0.4,0.5-0.7c0.1-0.2,0.2-0.5,0.3-0.8
		c0.1-0.2,0.2-0.3,0.2-0.5l18.8-106.7c0,0,0-0.1,0-0.2c0-0.3,0-0.5,0-0.8c0-0.3,0-0.5-0.1-0.8c0-0.1,0-0.1,0-0.2
		c-0.1-0.2-0.2-0.3-0.3-0.5c-0.1-0.3-0.3-0.5-0.4-0.7c-0.1-0.2-0.3-0.3-0.5-0.5c-0.2-0.2-0.4-0.3-0.6-0.5c-0.2-0.1-0.5-0.2-0.7-0.3
		c-0.2-0.1-0.3-0.2-0.5-0.2l-196.9-34.7c-0.2,0-0.4,0-0.6,0c-0.3,0-0.5,0-0.8,0c-0.3,0-0.5,0.1-0.7,0.2c-0.2,0.1-0.5,0.2-0.7,0.3
		c-0.2,0.1-0.4,0.3-0.7,0.5c-0.1,0.1-0.3,0.2-0.4,0.3c0,0.1-0.1,0.1-0.1,0.2c-0.2,0.2-0.3,0.5-0.4,0.7c-0.1,0.2-0.2,0.5-0.3,0.7
		c0,0.1-0.1,0.1-0.1,0.2l-18.8,106.7c0,0.2,0,0.4,0,0.6c0,0.3,0,0.6,0,0.9c0.1,0.3,0.2,0.5,0.3,0.8c0.1,0.2,0.1,0.4,0.2,0.5
		c0,0,0.1,0.1,0.1,0.1c0.2,0.4,0.5,0.7,0.9,0.9c0.1,0.1,0.1,0.2,0.3,0.2c0.5,0.3,1,0.5,1.5,0.6l25.9,4.6l-85.2,21.1
		c-0.2,0-0.3,0.2-0.5,0.2c-0.2,0.1-0.5,0.2-0.7,0.3c-0.2,0.1-0.4,0.3-0.6,0.5c-0.2,0.2-0.3,0.3-0.5,0.5c-0.1,0.2-0.3,0.5-0.4,0.8
		c-0.1,0.2-0.2,0.3-0.2,0.5c0,0.1,0,0.1,0,0.2c-0.1,0.3-0.1,0.5-0.1,0.8c0,0.3,0,0.5,0,0.8c0,0.1,0,0.1,0,0.2L221.6,461.2z
		 M234.9,453.8l50.7-72.2l22.9,5.9c0.2,0.1,0.4,0.1,0.6,0.1c0.1,0,0.2,0.1,0.4,0.1c0.3,0,0.7,0,1-0.1h0c0.3-0.1,0.6-0.2,0.9-0.4
		c0.1-0.1,0.2-0.2,0.3-0.2c0.2-0.1,0.3-0.2,0.5-0.3l17.5-15.9l78.6,40.2L234.9,453.8z M413.6,404.6l-77.6-39.7l23.5-21.5l7.5-6.8
		l24.3-22.1l6.8,27.6l2.1,8.5L413.6,404.6z M452.9,346.9l-54.9-67.7l71-23.7L452.9,346.9z M457.9,250.7L367.1,281L348,265.9
		L292,221.5L457.9,250.7z M280,222.1l58.6,46.5l-74.7,44.9L280,222.1z M269.6,319.5l75.6-45.5l18.5,14.7c0.2,0.1,0.3,0.2,0.5,0.3
		c0.1,0.1,0.2,0.1,0.3,0.2c0.3,0.1,0.6,0.3,1,0.3v0c0.3,0.1,0.7,0.1,1,0c0.1,0,0.2-0.1,0.4-0.1c0.2,0,0.4-0.1,0.6-0.1l22.4-7.5
		l55.6,68.6l-38.8-6.8l-9.3-37.6c0-0.1-0.1-0.1-0.1-0.2c-0.1-0.3-0.2-0.5-0.3-0.7c-0.1-0.2-0.2-0.5-0.4-0.7c0-0.1-0.1-0.1-0.1-0.2
		c-0.1-0.1-0.3-0.2-0.4-0.3c-0.2-0.2-0.4-0.4-0.7-0.5c-0.2-0.1-0.4-0.2-0.7-0.3c-0.2-0.1-0.5-0.2-0.7-0.2c-0.3,0-0.5,0-0.8,0
		c-0.2,0-0.4,0-0.6,0l-89.7,22.2L269.6,319.5z M303.1,333.5l19.2-4.7l56.9-14.1L357,334.8l-7.5,6.8l-41.2,37.5l-23.6-6.1l-69.1-17.9
		L303.1,333.5z M277.3,379.4l-50.1,71.3l-22.3-90.1L277.3,379.4z"/>
	<path class="st1" d="M392.4,116.1c-59.1-14.7-120.4-5.4-172.5,26c-52.2,31.4-89,81.3-103.6,140.4c-30.3,122,44.4,245.9,166.4,276.1
		c0.5,0.1,0.9,0.2,1.3,0.2c2.5,0,4.8-1.7,5.4-4.2c0.7-3-1.1-6-4.1-6.7c-116-28.8-187-146.6-158.2-262.7
		c14-56.2,48.9-103.6,98.6-133.5c49.6-29.9,107.9-38.7,164.1-24.7c116,28.8,187,146.6,158.2,262.7
		c-18.9,76.3-77.8,136.5-153.7,157.1c-3,0.8-4.7,3.9-3.9,6.8c0.8,3,3.9,4.7,6.8,3.9c79.8-21.7,141.7-85,161.6-165.2
		C589.1,270.2,514.4,146.3,392.4,116.1z"/>
</g>
</svg>
